<?xml version="1.0" encoding="UTF-8" standalone="no"?>
<!-- Created with Inkscape (http://www.inkscape.org/) -->

<svg
   xmlns:dc="http://purl.org/dc/elements/1.1/"
   xmlns:cc="http://creativecommons.org/ns#"
   xmlns:rdf="http://www.w3.org/1999/02/22-rdf-syntax-ns#"
   xmlns:svg="http://www.w3.org/2000/svg"
   xmlns="http://www.w3.org/2000/svg"
   xmlns:sodipodi="http://sodipodi.sourceforge.net/DTD/sodipodi-0.dtd"
   xmlns:inkscape="http://www.inkscape.org/namespaces/inkscape"
   version="1.1"
   id="svg2"
   xml:space="preserve"
   width="921.72186"
   height="360.29214"
   viewBox="0 0 921.72186 360.29214"
   sodipodi:docname="7364388_monk_logo.svg"
   inkscape:version="0.92.5 (2060ec1f9f, 2020-04-08)"><metadata
     id="metadata8"><rdf:RDF><cc:Work
         rdf:about=""><dc:format>image/svg+xml</dc:format><dc:type
           rdf:resource="http://purl.org/dc/dcmitype/StillImage" /><dc:title></dc:title></cc:Work></rdf:RDF></metadata><defs
     id="defs6" /><sodipodi:namedview
     pagecolor="#ffffff"
     bordercolor="#666666"
     borderopacity="1"
     objecttolerance="10"
     gridtolerance="10"
     guidetolerance="10"
     inkscape:pageopacity="0"
     inkscape:pageshadow="2"
     inkscape:window-width="1920"
     inkscape:window-height="1009"
     id="namedview4"
     showgrid="false"
     inkscape:zoom="0.91237117"
     inkscape:cx="435.52798"
     inkscape:cy="164.79196"
     inkscape:window-x="0"
     inkscape:window-y="0"
     inkscape:window-maximized="1"
     inkscape:current-layer="g10"
     width="542.66669px"
     inkscape:pagecheckerboard="false" /><g
     id="g10"
     inkscape:groupmode="layer"
     inkscape:label="ink_ext_XXXXXX"
     transform="matrix(1.3333333,0,0,-1.3333333,-68.322704,403.33392)"><g
       id="g646"
       inkscape:export-filename="/home/monk/notebook/ds/bulma/logo.png"
       inkscape:export-xdpi="111.90441"
       inkscape:export-ydpi="111.90441"><path
         d="m 488.60229,56.510085 c -1.34044,0 -2.68612,0.0544 -4.02131,-0.02299 -0.67646,-0.0391 -1.35553,-0.0935 -2.03264,-0.111323 -6.54801,-0.178315 -13.09142,-0.455295 -19.63681,-0.579804 -4.80799,-0.09085 -9.61402,-0.214826 -14.41939,-0.05175 -1.44542,0.04917 -2.88296,0.173676 -4.331,0.106088 -0.17453,-0.008 -0.35889,0.0026 -0.52817,-0.04115 -0.20799,-0.05175 -0.41007,-0.210187 -0.39761,-0.419314 0.0157,-0.23603 0.25392,-0.261939 0.46913,-0.271812 3.39079,-0.165659 6.76124,-0.624267 10.16253,-0.572516 2.56802,0.0391 5.13867,-0.01531 7.70408,0.0595 3.68538,0.106154 7.36814,0.267173 11.04894,0.448072 3.53382,0.173677 7.0683,0.375051 10.60016,0.6189 1.80693,0.123979 3.60337,0.367033 5.40506,0.55595 -0.008,0.0935 -0.0151,0.189513 -0.023,0.282149"
         style="fill:#672d06;fill-opacity:1;fill-rule:nonzero;stroke:none;stroke-width:0.06593651"
         id="path154"
         inkscape:connector-curvature="0" /><path
         d="m 485.39587,62.875541 c -1.45067,-0.08283 -2.89871,-0.215356 -4.34675,-0.23868 -4.18272,-0.06421 -8.35757,0.22006 -12.53504,0.381014 -2.61723,0.09814 -5.23906,0 -7.85826,-0.150352 -3.03452,-0.170827 -6.07429,-0.147833 -9.11144,-0.08283 -1.21972,0.02326 -2.41647,-0.178911 -3.62896,-0.188718 -0.20208,0 -0.41729,-0.08024 -0.42516,-0.233446 -0.0157,-0.237885 0.2257,-0.302889 0.4409,-0.308058 1.3247,-0.02584 2.65726,0.0026 3.97999,-0.08283 4.58032,-0.29739 9.14949,0.127358 13.72457,0.127358 4.01869,0 8.03213,-0.328733 12.05345,-0.219994 2.35282,0.06209 4.69776,0.209392 7.03025,0.551311 0.24341,0.03572 0.47699,0.165658 0.71253,0.251072 -0.0131,0.06421 -0.0256,0.129147 -0.0361,0.194151"
         style="fill:#672d06;fill-opacity:1;fill-rule:nonzero;stroke:none;stroke-width:0.06593651"
         id="path156"
         inkscape:connector-curvature="0" /><g
         transform="translate(21,7.5)"
         id="g546"><path
           inkscape:connector-curvature="0"
           id="path14"
           style="fill:#d46c17;fill-opacity:1;fill-rule:nonzero;stroke:none;stroke-width:0.06593651"
           d="m 207.49424,127.68536 c 0.0951,-0.10868 0.19017,-0.10868 0.28216,0 -0.11298,-0.49698 -0.22578,-0.99395 -0.33855,-1.49093 -0.15096,0.50691 -0.13327,1.00124 0.0564,1.49093" /><path
           inkscape:connector-curvature="0"
           id="path18"
           style="fill:#d46c17;fill-opacity:1;fill-rule:nonzero;stroke:none;stroke-width:0.06593651"
           d="m 424.21158,208.95868 c 0.22045,-0.0828 0.19224,-0.16036 0,0" /><path
           inkscape:connector-curvature="0"
           id="path20"
           style="fill:#fffae0;fill-opacity:1;fill-rule:nonzero;stroke:none;stroke-width:0.06593651"
           d="m 367.22489,265.72252 c 0.20208,-2.02899 0.0459,-4.06924 -0.21061,-6.08298 -0.11285,-0.86672 -1.23743,-4.54765 -0.78143,-5.21824 0.44616,-0.65468 1.73279,-0.41414 2.49913,-0.95485 1.27614,-0.90317 2.48601,-3.69087 2.51882,-5.21559 0.0695,-3.16341 -3.55482,-4.88957 -5.32567,-7.15446 -1.07602,-1.3796 -1.68621,-3.176 -2.91117,-4.43633 -1.63044,-1.67977 -2.33773,-0.29818 -3.75494,-0.82564 -0.72041,-0.26969 -2.51947,-4.25013 -2.76814,-4.94921 -0.65348,-1.82489 -0.35889,-3.33106 -0.023,-5.27787 0.75584,-4.37471 -0.31034,-5.57275 -4.37759,-7.46987 -3.20379,-1.49358 -6.70941,-2.09657 -10.20518,-2.42325 -3.78052,-0.35451 -8.061,-1.08937 -11.67684,0.21999 -2.24259,0.81305 -6.02311,1.07943 -6.77436,3.26414 -0.52489,1.53002 -0.0794,3.51527 -0.36349,5.10426 -0.40744,2.24964 -1.69933,3.30323 -2.96038,5.10427 -1.85549,2.64059 -2.7373,5.77485 -3.49315,8.86802 -0.86147,3.51262 -2.23275,8.16166 -1.77872,11.78494 0.17453,1.38755 1.14558,2.13567 1.50185,3.4119 0.36676,1.31996 -0.005,2.82149 -0.005,4.22164 0.008,3.95526 0.75846,7.98804 1.76363,11.80547 1.99917,7.59445 6.46861,12.82329 13.48574,16.37434 8.16336,4.13152 17.46901,3.05209 24.65344,-2.07073 2.91905,-2.08332 5.63077,-2.51602 7.27826,-6.00213 1.98409,-4.2011 3.58304,-7.4056 3.70901,-12.07782" /><path
           inkscape:connector-curvature="0"
           id="path22"
           style="fill:#fffae0;fill-opacity:1;fill-rule:nonzero;stroke:none;stroke-width:0.06593651"
           d="m 338.37626,104.68468 c -3.34749,0.81769 -6.61493,0.77396 -10.02606,0.79185 -1.48413,0.0106 -3.27335,-0.18355 -4.14729,1.32792 -0.72763,1.26563 -0.0846,3.43708 1.16132,4.12821 2.35282,1.30737 6.88656,0.75341 9.46968,0.83889 3.33961,0.10867 6.63593,1.20864 9.89549,0.0855 6.73566,-2.32187 10.33641,-8.46647 18.06673,-8.7852 1.44542,-0.0596 6.96333,0.97076 7.43769,-1.01714 0.61478,-2.567703 -5.65438,-2.329818 -7.16868,-2.611437 -3.1067,-0.577816 -6.77896,-1.058888 -9.70851,-2.24699 -2.67563,-1.081948 -4.95431,-2.942755 -7.68898,-4.004294 C 342.91,92.125811 340.693,90.1452 338.03049,88.86963 c -3.37832,-1.620867 -6.6766,-1.876644 -10.32131,-2.472219 -6.72253,-1.100104 -12.07379,0.879779 -17.52018,4.881489 -2.65529,1.9496 -4.88017,4.240324 -7.09652,6.657677 -1.73279,1.889698 -4.9904,3.835853 -3.47543,6.791863 1.36865,2.66909 6.35577,1.95941 8.91132,2.40469 3.86451,0.67589 7.20937,0.67059 11.02073,-0.3439 3.23398,-0.85944 5.83022,-2.29139 8.85753,-3.47684 3.92093,-1.53201 6.50929,-0.36975 9.96963,1.37231" /><path
           inkscape:connector-curvature="0"
           id="path24"
           style="fill:#fffae0;fill-opacity:1;fill-rule:nonzero;stroke:none;stroke-width:0.06593651"
           d="m 262.16744,63.938025 c -2.49376,1.017209 -6.80717,1.814158 -7.99408,4.576279 -1.35094,3.14466 1.39424,5.023823 4.18016,5.088827 6.1897,0.144454 14.48559,-3.137437 19.20698,-7.012518 2.35742,-1.935619 4.49503,-3.93929 7.10899,-5.55426 3.01418,-1.863856 6.22585,-3.258765 9.11406,-5.345531 5.40046,-3.895556 10.02606,-8.489528 15.87203,-11.792822 3.45246,-1.951389 2.507,-3.359486 -1.05569,-3.344245 -3.39341,0.01577 -6.79142,-0.61837 -10.18746,-0.724258 -7.61485,-0.241199 -15.16999,1.283388 -22.79271,0.763353 -3.6926,-0.253921 -7.68308,-1.41068 -11.38684,-1.033045 -3.24979,0.331317 -2.04779,1.512129 -3.18549,3.396527 -0.69483,1.151855 -2.48857,2.046941 -3.29362,3.315221 -1.02748,1.618284 -0.651,3.124251 -1.28658,4.700855 -0.98955,2.461551 -3.53717,3.447483 -0.35371,5.780152 -5.77458,4.979558 2.44271,6.31006 6.05396,7.185465" /><path
           inkscape:connector-curvature="0"
           id="path26"
           style="fill:#fffae0;fill-opacity:1;fill-rule:nonzero;stroke:none;stroke-width:0.06593651"
           d="m 370.66686,39.089269 c -5.4313,-0.601062 -10.7924,0.597629 -16.20796,0.797214 -5.56449,0.201374 -11.0719,-0.603129 -16.64427,-0.442639 -3.24448,0.0927 -10.36199,-1.136562 -6.75796,4.030137 1.08652,1.560303 3.05223,4.433747 5.1741,4.516576 0.46388,0.01577 1.48938,-0.717036 2.05298,-0.807883 1.00713,-0.168242 2.26818,0.158436 3.27794,0.264259 10.49321,1.084863 21.26003,3.245645 31.61414,5.290465 2.07332,0.411562 4.7647,2.23122 6.72516,1.035895 2.4145,-1.467865 0.80702,-4.439644 0.27688,-6.486585 -0.56622,-2.195172 -0.61806,-4.666862 -2.52472,-6.183696 -1.85024,-1.465016 -4.75682,-1.623452 -6.98629,-2.013743" /><path
           inkscape:connector-curvature="0"
           id="path28"
           style="fill:#d46c17;fill-opacity:1;fill-rule:nonzero;stroke:none;stroke-width:0.06593651"
           d="m 354.08164,111.87757 c 3.16049,-1.70827 7.19165,-5.90406 11.06731,-4.9565 -3.4938,2.06543 -7.12014,3.93671 -11.06731,4.9565 M 373.891,101.07598 c -2.53719,0.94227 -4.71877,1.91303 -7.40424,2.01441 -3.25235,0.12391 -6.38201,0.3671 -9.48542,1.49092 -2.91445,1.05558 -4.25752,2.59355 -6.44828,4.54501 -1.8253,1.62544 -4.67546,2.39144 -7.03812,3.01299 -3.13688,0.82034 -5.31058,0.83823 -8.13252,-0.53342 -2.77798,-1.35111 -5.23053,-0.65468 -8.16533,-0.92901 -2.48601,-0.22795 -2.88099,-0.52017 -2.99581,-2.62999 -0.0387,-0.72758 0.91725,-1.32792 0.14566,-2.04224 -0.92512,-0.85679 -2.69334,0.58245 -3.63421,0.89588 -2.70384,0.89522 -5.78954,0.90052 -8.58852,0.57715 -1.44016,-0.16565 -2.84687,-0.53872 -4.28769,-0.69642 -1.30173,-0.14512 -3.09555,0.50492 -4.26736,0.19415 -1.36865,-0.36246 -4.74895,-3.45829 -4.58754,-4.77825 0.23095,-1.86134 4.71876,-5.397218 6.07429,-6.776821 3.9288,-3.998861 9.40078,-8.166163 14.69102,-10.148895 5.55137,-2.081332 11.9944,1.465282 17.17638,3.212447 2.61724,0.880044 5.10325,2.122482 7.62731,3.235043 2.58115,1.139134 4.4163,3.235772 7.00204,4.348732 3.41638,1.467932 7.00466,2.135137 10.66709,2.577776 3.97013,0.479084 7.73491,1.683088 11.65125,2.430538 m 3.56466,104.94723 c 2.57852,0.81836 5.58746,-1.60688 7.65093,-2.83938 2.9781,-1.77785 4.7437,-4.61524 6.77896,-7.40824 1.8837,-2.58295 3.63159,-4.81934 5.85581,-7.00139 2.40203,-2.35765 2.66841,-5.3554 2.66578,-8.56255 -0.003,-7.72101 3.81071,-14.47655 5.33092,-21.90269 1.44804,-7.06698 2.31936,-14.18234 4.18797,-21.17114 0.88641,-3.31582 2.07857,-6.54615 2.93939,-9.87721 0.35102,-1.36635 0.80505,-2.52132 1.47625,-3.77635 0.5308,-0.99925 1.7223,-4.37206 2.42959,-5.04728 1.22758,-1.17286 6.26391,0.9807 8.15286,1.15961 3.17558,0.29752 6.30458,-0.25379 9.02942,-1.97796 6.71466,-4.24748 8.31689,-11.43573 9.42375,-18.729338 0.50783,-3.36492 1.26367,-6.683256 -0.39498,-9.820892 -1.80169,-3.403285 -4.59279,-6.574583 -6.92986,-9.626076 -4.67218,-6.106036 -8.08069,-12.572146 -9.62649,-20.19972 -1.17904,-5.819247 -2.3069,-12.789622 -8.66791,-15.277082 -2.63692,-1.030395 -5.28499,0.789263 -8.08069,0.323299 -3.6014,-0.600213 -6.7409,-2.844619 -10.35215,-3.367238 -1.32469,-0.188983 -3.48789,-0.305673 -4.77453,0.294806 -1.98343,0.926891 -0.87132,1.734774 -1.4277,3.19979 -0.47371,1.242438 -4.35659,2.572344 -5.88665,4.06592 -1.02288,0.999383 -2.70384,2.12765 -3.38357,3.372937 -0.79915,1.465016 0.59247,2.90419 0.19749,3.817895 -0.34315,0.802383 -2.82391,1.444607 -3.48002,1.700318 -2.13499,0.833725 -3.69851,0.830876 -5.93586,0.476566 -2.73992,-0.432037 -6.86622,-2.060128 -9.63173,-1.312081 -1.18429,0.320715 -1.52743,1.529491 -2.53194,1.90971 -1.08456,0.412092 -3.65521,0.05699 -4.85458,-0.05897 -2.15271,-0.207338 -4.01607,-0.973276 -5.95882,-1.88983 -1.44804,-0.680525 -2.91117,-1.563153 -4.5672,-1.588995 -2.6297,-0.04168 -2.35282,0.83293 -4.50815,-1.170277 -2.30427,-2.140837 -5.08225,-3.703989 -7.69161,-5.427631 -0.70205,-0.463844 -2.52932,-1.115875 -3.0214,-1.755184 -0.80768,-1.05372 -0.33856,-2.505616 -1.52744,-3.411304 -2.39153,-1.819591 -6.9561,-0.461193 -9.64945,-0.510161 -3.28319,-0.05977 -6.63592,-0.271746 -9.93683,0.53607 -3.15459,0.771372 -5.03829,3.067265 -7.19165,5.295635 -2.69859,2.795717 -5.57434,5.098898 -8.95201,7.006819 -6.19501,3.496717 -11.96618,6.219942 -16.36739,12.043894 -2.03985,2.699701 -3.60862,2.526025 -6.84785,3.274072 -3.28056,0.758649 -6.52242,2.286086 -9.90862,2.469635 -2.12724,0.11669 -6.60187,1.001968 -7.66549,-1.146952 -1.60925,-3.242995 1.55571,-4.004294 3.25517,-5.554194 2.46298,-2.252159 -0.1845,-2.384222 -1.59974,-3.388774 -1.37324,-0.977915 -1.49396,-2.614023 -3.51328,-2.934738 -1.86356,-0.295601 -2.86335,0.946837 -3.91391,2.383427 -3.17802,4.349062 -5.53104,13.366841 -11.57705,14.244036 -0.8122,0.11934 -1.67847,0.528052 -2.48345,0.134581 -1.03804,-0.504198 -0.7689,-2.023617 -2.06269,-2.365536 -3.49124,-0.926428 -2.70647,4.940993 -2.13237,6.626335 0.27426,0.802383 2.19851,3.538331 1.9066,4.234891 -0.35883,0.848767 -4.34931,0.980499 -5.03901,1.030196 -3.51867,0.250542 -6.08676,-2.101807 -9.13434,-3.660255 -2.83972,-1.45448 -4.63353,-1.977298 -6.37866,-4.638434 -1.45598,-2.223202 -3.42688,-2.324651 -2.79131,0.954855 0.53546,2.772458 3.40877,5.601837 4.67225,8.141049 1.67105,3.354317 4.0574,6.385136 5.52316,9.846071 1.26124,2.981845 0.69226,6.895355 1.06618,10.170095 0.42523,3.72732 1.47882,6.86688 3.15525,10.22643 2.8495,5.71522 8.98028,11.19253 15.66417,11.49801 1.68667,0.0749 3.6163,-0.11928 5.2489,-0.55661 1.47166,-0.39626 2.81925,-1.62808 4.24965,-1.91832 1.76356,-0.35716 1.50184,-0.0152 1.72485,2.18006 0.19218,1.87657 0.20274,3.71936 0.8996,5.51312 1.1356,2.92751 3.05014,5.67612 4.90825,8.16099 2.47558,3.31052 1.68614,3.87243 0.84579,7.60239 -0.68176,3.02293 -1.09977,6.08496 1.10693,8.5155 1.6559,1.8249 5.36963,4.81734 4.96415,7.70841 -0.1097,0.78456 -1.21715,1.55852 -1.5275,2.4153 -0.51518,1.42599 -0.36086,2.94011 0.0694,4.36146 0.94553,3.10841 3.25242,5.05258 5.70241,6.98614 2.30689,1.81694 3.70901,1.51412 3.83957,4.5894 0.13582,3.12631 1.15607,6.25062 3.52136,8.44858 1.9375,1.7964 3.20905,4.07123 5.14655,6.02002 2.25244,2.26025 5.07963,3.4066 8.02951,4.48338 3.17559,1.16226 6.39972,1.66984 9.66717,2.467 2.94004,0.71961 3.21692,1.70295 4.39333,4.27597 0.725,1.59164 1.69146,3.85122 3.12638,4.95186 1.98671,1.52141 5.62616,1.54526 8.00917,2.04224 5.89517,1.22653 11.8179,-0.16566 17.67962,-1.0536 7.33206,-1.11057 14.01654,-0.83358 21.09009,1.7964 1.39161,0.51487 3.07586,0.60301 4.38283,1.14106 0.95333,0.3936 1.34044,1.24243 2.48339,1.02775 1.58648,-0.30018 1.62978,-2.01905 2.17567,-3.12962 0.77159,-1.55785 1.52021,-2.05218 3.05814,-2.7771 2.61921,-1.23448 5.36373,-2.25428 7.958,-3.5696 2.02935,-1.02709 5.89189,-2.07802 6.26325,-4.72127" /><path
           inkscape:connector-curvature="0"
           id="path30"
           style="fill:#d46c17;fill-opacity:1;fill-rule:nonzero;stroke:none;stroke-width:0.06593651"
           d="m 332.18387,102.36017 c -1.26564,-0.22 -4.89001,0.0205 -5.01795,1.78579 -0.12073,1.58966 3.97539,0.81305 4.97989,0.74547 0.9763,-0.0643 5.12818,0.33661 5.21545,-1.13112 0.0951,-1.65128 -4.38021,-1.36105 -5.17739,-1.40014" /><g
           id="g472"><path
             d="m 356.3426,221.17102 c 0.58919,0.73221 0.45338,1.47502 -0.0643,2.44047 0.0256,-0.97539 0.0459,-1.70826 0.0643,-2.44047 M 373.47043,58.670089 c -0.82014,0.735589 -1.34044,0.127292 -1.88632,-0.328733 0.60493,0.106088 1.20724,0.210121 1.88632,0.328733 m 8.20141,-5.556845 c 0.47962,1.532075 -0.77159,0.556016 -0.94021,0.835581 0.3379,-0.03313 0.5203,-0.455362 0.94021,-0.835581 m -15.91599,37.528911 c 0.91266,-0.60028 1.46379,-0.369683 1.83778,0.592991 -0.63053,-0.204754 -1.20725,-0.390888 -1.83778,-0.592991 m -12.01474,23.407525 c 0.0486,-0.91907 0.21783,-1.7679 1.10424,-2.40204 -0.0276,1.04033 -0.74272,1.64863 -1.10424,2.40204 m 34.48661,-66.175879 c -0.10235,0.642158 -0.17912,1.107857 -0.26376,1.625506 -0.96645,-0.644278 -0.66858,-1.094604 0.26376,-1.625506 m -26.49515,46.555437 c -0.9284,0.191302 -1.86861,0.299974 -2.81932,-0.587822 1.0839,0.225163 1.95259,0.406857 2.81932,0.587822 M 394.7403,53.477693 c -0.22767,0.807882 -0.41532,1.545261 -0.78931,2.226581 -0.28934,-0.89873 -0.20733,-1.667186 0.78931,-2.226581 M 381.70005,47.51916 c -0.29722,-0.825443 -0.59443,-1.651151 -0.89165,-2.476858 0.57934,0.73486 1.3529,1.385103 0.89165,2.476858 m -26.50565,174.8552 c -1.15869,-0.96811 -0.0978,-1.88917 -0.2362,-2.74132 0.95137,0.80775 0.14632,1.71092 0.2362,2.74132 m -0.0899,3.55105 c -0.75322,-0.66992 -0.81489,-1.15166 -0.43304,-2.89107 0.88379,0.89058 0.28935,1.88718 0.43304,2.89107 M 371.8918,79.514551 c 0.19224,1.527436 0.43304,3.103775 0.22833,4.643868 -0.50783,-1.306912 -1.67637,-2.114464 -2.5864,-3.116432 0.78668,-0.509698 1.57139,-1.017275 2.35807,-1.527436 m -30.03225,-9.098025 c -1.98409,-2.578306 -4.50619,-4.658909 -7.15885,-6.509579 0.9717,-0.375845 3.68342,1.922897 4.43401,2.476858 1.49659,1.107791 1.98605,2.358313 2.72484,4.032721 m -16.10298,39.320734 c -2.10219,-0.0444 -1.93029,-2.51601 -0.0748,-2.96396 2.54244,-0.61359 2.15533,3.0077 0.0748,2.96396 m 24.62457,-35.937923 c -3.37308,-2.567705 -3.96751,-2.761857 -2.91905,-6.995952 0.71451,2.427624 1.58386,4.835104 2.91905,6.995952 m 63.14299,56.085963 c 0.26901,0.0311 -3.20904,12.77624 -3.59812,14.20023 0.27688,-4.91806 1.76035,-9.66252 3.59812,-14.20023 M 329.27532,56.501223 c 3.16247,-1.379603 6.46599,2.888419 7.69621,5.498069 -2.47289,-1.962323 -4.86443,-4.053462 -7.69621,-5.498069 m -1.97621,48.015157 c 3.42163,-1.87393 6.43056,-2.13832 9.93683,-0.25909 -3.24514,0.90317 -6.65102,0.99925 -9.93683,0.25909 m -9.04977,130.73825 c -1.28926,5.38655 -0.74075,11.00303 -1.77609,16.42602 -1.27089,-2.93812 -0.99926,-5.49257 -0.4127,-8.52412 0.51243,-2.64788 0.56885,-5.64497 2.18879,-7.9019 M 327.4428,72.673655 c -2.4578,-1.335405 -4.25686,-3.595582 -5.6511,-5.966551 -0.49996,-0.853936 -1.94275,-2.743236 -1.98409,-3.719295 -0.0617,-1.511401 -0.36873,-0.290168 0.32543,-1.066178 1.6685,-1.863922 1.99918,0.600214 2.70122,2.129704 1.34831,2.956008 2.84031,5.89671 4.60854,8.62232 M 302.59515,211.43295 c 6.54275,2.83475 12.34542,5.13541 19.55282,5.73377 -6.33084,1.48032 -15.57022,-0.0881 -19.55282,-5.73377 M 346.92607,92.586255 c 4.70827,-2.197292 9.41391,3.098607 13.65043,3.652503 4.9051,0.638845 9.54185,-0.276915 13.31712,3.791592 -2.17108,0.23059 -3.79364,-0.636794 -5.97194,-0.861427 -2.87836,-0.298185 -5.63076,-0.968108 -8.46254,-1.509347 -2.65529,-0.504993 -4.64397,-0.711801 -6.98695,-2.065561 -1.7118,-0.988516 -4.22077,-1.516834 -5.54612,-3.00776 m 0.6279,-35.000235 c 2.83244,2.774513 6.43056,4.431097 10.42629,3.450333 -4.15713,3.579546 -4.75944,8.722974 -3.93668,13.865606 -6.35642,-4.529696 -2.83965,-11.75651 -6.48961,-17.315939 m 26.12707,9.369572 c -4.0141,1.843446 -8.29655,3.173352 -12.07182,5.489984 -0.93299,0.572582 -4.40842,3.691598 -5.40506,3.32377 -1.202,-0.439989 -0.78668,-4.501203 -0.65349,-5.593289 0.4127,-3.357697 3.36258,-9.769206 7.60173,-9.843951 1.78331,-0.03393 3.57253,2.384155 4.76403,3.440261 1.69146,1.500997 3.49118,2.76179 5.76461,3.183225 M 313.42626,56.907616 c -0.47962,1.395374 -1.68162,3.556222 -0.74075,5.003413 1.22758,1.897054 3.3652,0.206808 4.6643,1.033046 1.33257,0.843532 1.87845,3.884887 2.71434,5.225461 1.23546,1.982732 2.83703,3.689013 4.71024,5.075839 4.1007,3.038837 9.40341,4.514456 14.1681,6.165871 2.04051,0.706898 5.49232,0.587557 7.1431,1.519419 1.82727,1.027612 3.47018,5.360572 4.29295,7.139081 -5.52579,1.265762 -11.21297,-4.77613 -16.80765,-5.3945 -1.73804,-0.191567 -3.43737,-0.108738 -5.16951,0.106154 -1.03797,0.126563 -2.52997,0.797214 -3.49577,0.442573 -1.16919,-0.427332 -3.28319,-5.758948 -3.87304,-6.892647 -2.44992,-4.726698 -5.6406,-7.491138 -9.10881,-11.363635 -1.40146,-1.565737 -2.92889,-3.861695 -3.40588,-5.935274 -0.47634,-2.073314 -0.64037,-0.931531 0.51242,-1.780298 0.73813,-0.53892 3.47018,-0.271746 4.39596,-0.344503 m 1.34765,148.429774 c 4.93397,-1.47237 9.70326,-0.91377 14.7527,-1.15431 4.95169,-0.23789 9.48018,-0.74546 14.40627,0.26903 4.85393,0.9966 9.5366,2.88378 14.49551,3.31847 4.7391,0.41414 10.20846,-0.4221 14.24027,2.67637 -2.71696,1.30208 -4.30082,0.53607 -6.98432,-0.41944 -1.05831,-0.37505 -5.47986,-2.40205 -6.38923,-1.36105 2.38366,1.19274 5.05141,1.93621 7.54792,2.85197 -0.67973,0.89323 -2.28393,2.71282 -3.53448,2.67373 -1.99655,-0.0643 -0.269,-1.10991 -1.75313,-2.01639 -0.0564,1.18611 -0.33855,3.38075 -1.61732,3.30322 -0.87919,-0.0543 -1.70392,-3.942 -3.71885,-4.06128 2.23735,2.97125 3.97802,6.14725 1.57139,9.48626 -0.269,-2.31921 -1.63503,-5.9352 -4.35987,-6.29501 -0.45337,1.36436 5.3283,6.26453 0.0538,2.97721 -3.73918,-2.32982 -7.1864,-4.94656 -10.86654,-7.33602 -7.62731,-4.94854 -18.98922,-5.89346 -27.84412,-4.91276 M 376.74575,47.144374 c 1.02812,1.29134 2.96038,0.680525 3.56531,2.741116 0.74863,2.554519 -1.37127,2.820897 -3.34749,2.683666 -5.4641,-0.380219 -11.32254,-1.907656 -16.56422,-3.431713 -5.80988,-1.69051 -11.57646,-2.798301 -17.64288,-2.818777 -2.06085,-0.008 -5.46935,0.809672 -7.3688,0.129148 -1.95259,-0.703783 -4.03903,-4.265438 -4.8513,-6.007436 7.76575,0.646863 15.56169,-0.406857 23.38911,0.312697 7.025,0.644743 17.0924,-2.580136 23.24346,1.786526 -0.78668,0.08747 -1.80169,-0.173676 -2.42959,0.483789 1.23284,0.999119 3.06995,0.305408 3.83629,2.031634 1.02813,2.319218 -0.86606,0.97606 -1.82989,2.08935 M 355.78622,200.94479 c -0.0125,0.0258 -0.67908,0.53342 0.98417,-1.15166 1.5458,-1.56315 3.3009,-2.9792 4.93397,-4.44958 3.45706,-3.11637 6.9069,-6.25857 10.60016,-9.09531 3.48068,-2.67439 7.12735,-5.12282 10.84882,-7.44469 1.2558,-0.78124 11.52528,-5.57804 11.51807,-5.78214 -5.40769,-0.54667 -11.81791,3.85123 -16.16466,6.58459 -5.44377,3.42449 -10.52077,7.27638 -15.29596,11.5782 -4.48256,4.04273 -8.99334,8.06292 -14.12676,11.27272 -2.43484,1.52141 -4.06987,0.51222 -6.77896,0.13186 -3.03453,-0.42739 -6.07889,-0.18885 -9.12916,-0.0543 4.55474,-3.07793 9.97226,-4.56621 14.40102,-7.83498 4.80078,-3.54376 8.49667,-8.94357 11.91501,-13.76555 1.66128,-2.34241 20.40905,-26.6816 20.3605,-26.73594 -10.24192,6.96031 -17.05172,19.36944 -24.73021,28.8504 -3.63946,4.49398 -7.42195,8.86074 -12.53766,11.70543 -2.46567,1.37165 -5.07438,2.44313 -7.47378,3.94929 -2.0602,1.29479 -3.91109,3.67563 -6.34068,4.26338 -2.47289,0.5977 -5.30532,-0.1862 -7.85039,-0.0106 -3.29828,0.23325 -6.55588,0.97341 -9.66716,2.08133 -2.45255,0.87468 -4.81325,2.10983 -7.41474,2.50542 -3.11391,0.47378 -5.823,-1.19274 -8.75254,-2.11711 -4.86705,-1.53267 -12.34542,-2.18736 -15.93108,-6.12671 -4.00557,-4.3979 -2.02476,-9.14766 -2.89871,-14.29831 -1.4172,2.74596 -1.04322,5.7563 -1.26105,8.72026 -9.90271,-7.07958 -1.47625,-17.28546 3.38817,-24.34913 -1.80168,-0.38565 -6.59656,7.941 -7.39111,9.3544 -1.3096,2.33247 -1.13048,2.58095 -3.27794,1.1828 -1.71508,-1.11256 -3.44991,-2.29073 -4.68012,-3.9599 -2.31667,-3.14022 -1.76612,-7.26048 0.43566,-10.33576 0.78943,-1.10527 8.8215,-8.91706 8.01448,-9.82023 -2.59886,2.50542 -4.9879,5.21294 -7.42267,7.87143 -0.64817,-3.32907 -3.58296,-5.25999 -4.68195,-8.31937 -1.2354,-3.43244 1.07615,-7.27638 2.23459,-10.46497 1.18179,-3.25618 2.30899,-3.51527 5.58496,-3.25088 0.89428,0.0722 9.25972,-1.19605 8.43171,-2.74396 -0.25654,-0.47909 -3.75953,1.03768 -4.26474,1.16226 -2.2603,0.5639 -3.85466,0.0258 -6.02771,0.0311 -3.70369,0.008 -4.31138,3.08522 -5.22587,6.00213 -1.19222,3.80021 -3.06805,6.74826 -0.93824,10.64654 0.73019,1.3352 6.7226,7.82967 2.96812,8.9535 -0.96114,-1.26894 -1.28919,-3.42449 -2.10671,-4.87963 -0.97164,-1.71821 -2.40918,-3.27673 -3.25242,-5.05987 -1.85096,-3.91418 1.41734,-8.25244 2.95717,-11.80879 1.35343,-3.12896 1.8404,-6.1784 5.67203,-6.3699 4.03385,-0.20475 8.57809,-0.60565 12.60727,-0.26903 -1.57663,-1.72152 -4.64659,-0.97606 -6.72253,-0.9966 -2.26096,-0.0205 -5.03901,-0.6189 -7.23568,-0.12457 -4.75143,1.07412 -4.4157,6.41429 -6.70672,9.78974 -1.00772,-6.03659 -8.47822,-11.38139 -6.70206,-17.83146 0.63302,-2.30133 5.18966,-3.24095 7.38639,-4.0149 3.45968,-1.2166 6.82738,-2.41994 10.06411,-4.16995 6.05921,-3.27408 11.22347,-6.72706 17.7741,-9.02839 3.65521,-1.28418 7.00466,-2.9613 10.25439,-5.07577 2.15533,-1.40544 1.01763,-1.07678 2.55556,0.0126 1.12523,0.79516 1.73739,1.70628 3.13163,2.19531 -1.54515,3.38274 -5.63864,2.33711 -8.42187,3.90291 -3.39801,1.91567 -5.4103,3.231 -9.37782,3.96586 -7.75,1.43394 -13.23511,8.03178 -19.76547,12.04138 2.48149,0.52016 6.159,-2.85794 7.99677,-4.25544 1.96309,-1.48827 5.33092,-5.54955 8.0118,-5.53895 1.67112,0.005 0.63315,-0.95552 1.79644,1.04564 0.78405,1.34845 0.78143,3.08257 0.76371,4.58144 -0.0125,1.04299 -1.18691,8.63478 -0.32018,8.87267 0.38186,-1.37961 0.76109,-2.75921 1.14295,-4.13881 2.67825,7.1909 4.81062,14.75154 7.1326,22.07431 1.99918,6.31026 1.03535,14.67335 5.52053,19.96448 0.56623,-1.24244 -1.00713,-3.63454 -1.37127,-4.86108 -0.5741,-1.93356 -0.80965,-3.78695 -0.94546,-5.79075 -0.30509,-4.50127 -1.45854,-8.57779 -2.92692,-12.82262 -1.35553,-3.92412 -2.64479,-7.86878 -3.73459,-11.87572 -1.0301,-3.7896 -2.82916,-8.26768 -2.84688,-12.20703 7.41408,7.91316 18.52207,12.40118 23.97371,22.17768 1.28401,2.30331 2.25769,4.77295 2.90396,7.33005 0.27884,1.10527 1.95784,7.17036 0.6817,8.07883 -2.95054,2.09657 -9.14753,-6.78206 -11.69521,-7.62294 1.40736,2.93282 6.97382,8.32665 10.18287,8.9767 4.80799,0.97274 3.36258,-6.19695 2.7806,-8.90182 -2.12449,-9.87192 -8.95725,-15.55864 -16.51042,-21.48656 1.21512,-0.35716 3.606,1.16226 4.7929,1.52472 1.34044,0.4115 2.70647,0.73751 4.05937,1.09732 2.86787,0.76402 5.75411,1.53533 8.39366,2.93282 5.74098,3.03619 10.82586,7.49372 15.85168,11.5497 -0.80177,-3.89032 -7.08339,-7.47517 -10.05689,-9.61348 -4.32576,-3.11372 -8.70334,-4.74181 -13.79347,-6.1784 -8.45532,-2.38681 -20.0016,-6.45537 -23.64302,-15.3234 3.398,-0.46119 3.14474,0.74546 5.16164,3.19124 1.62716,1.97266 3.98523,4.29453 6.72253,4.2402 -2.42696,-1.8302 -4.39268,-3.13492 -6.24095,-5.62974 -2.41646,-3.26678 0.0873,-2.45439 2.69925,-3.7949 2.74452,-1.4081 2.76027,-2.35036 4.96678,0.14512 1.92241,2.17145 3.86713,4.27862 5.96931,6.28176 8.0446,7.66203 19.18081,9.47102 27.31529,17.14034 0.97696,0.91908 3.85729,5.23414 4.92347,5.56281 1.34044,0.4115 0.90216,-0.2306 0.26901,-1.52207 -2.32461,-4.72126 -8.22962,-8.9323 -12.67348,-11.41254 -4.67218,-2.60878 -10.10085,-3.98574 -14.39577,-7.24457 -4.54424,-3.44503 -7.79659,-8.29352 -12.62296,-11.48741 1.78922,-1.44984 4.48257,-0.66794 6.45353,-2.0164 1.53268,-1.05093 2.41975,-3.34696 4.38021,-3.57225 1.00451,-0.11398 2.50635,0.57715 3.59091,0.72227 2.01426,0.26903 4.05412,0.36776 6.07888,0.1577 3.07061,-0.31541 6.30787,-1.1775 9.16262,-2.34771 -2.404,2.23639 0.023,5.0009 2.42696,5.37131 3.21167,0.49433 6.23832,0.54866 9.45721,1.37695 3.29894,0.84884 6.17665,0.98136 9.43163,-0.11397 1.79446,-0.60565 1.7177,-1.27623 2.44795,0.19415 0.56098,1.12582 -0.46387,3.46359 -0.42319,4.70337 0.22308,6.9676 7.54267,4.382 12.06395,5.75365 5.24103,1.59496 13.45819,5.5913 18.83241,2.04754 -0.3917,-0.71167 -9.43163,-0.5745 -10.71826,-0.84883 -4.17223,-0.88263 -7.79397,-3.28733 -12.14531,-3.19125 -2.78389,0.0643 -5.84137,0.61559 -6.7947,-2.71282 -0.4127,-1.43394 -0.7506,-8.41478 1.46575,-8.05497 -0.0794,2.02633 -1.09636,5.43293 0.29,7.20614 1.79906,2.30596 5.39981,0.58974 7.53218,-0.13717 3.23988,-1.11057 5.20297,-2.11777 6.67398,-5.33751 1.37652,-3.02095 2.27081,-7.30222 5.44902,-9.02308 2.1094,-1.14172 6.45877,-3.06468 8.75779,-2.84999 3.45181,0.32337 7.90879,2.57036 10.87442,4.27333 6.65036,3.82339 12.80667,9.24307 20.01866,11.94065 1.67374,0.62619 3.40391,1.08407 5.09012,1.66653 2.08382,0.71961 1.91716,0.52281 0.96383,2.53656 -1.81218,3.83399 -3.48789,7.69847 -4.87754,11.71006 -2.59886,7.50896 -2.45518,15.48905 -4.96153,22.97217 -2.36332,7.06103 -4.49831,13.99549 -5.00286,21.46867 -0.47699,7.08686 -4.38808,13.5323 -9.26759,18.49675 -2.51948,2.56505 -4.52653,5.60919 -7.42261,7.78859 -3.23135,2.43518 -5.68456,2.56771 -9.56744,2.3709 -4.23914,-0.21734 -8.51897,0.7839 -12.75024,1.03239 -4.69514,0.27433 -8.25521,-1.27358 -12.71219,-2.34241 12.73778,-5.01349 24.3582,-11.71006 36.14264,-18.62862 -1.46641,-0.65468 -4.92085,2.02435 -6.1819,2.69427 -2.76814,1.47038 -5.52053,2.97655 -8.27358,4.47808 -5.03304,2.74396 -9.9283,5.83714 -15.1877,8.14045 M 241.78667,76.338548 c 0.13837,-0.09005 -0.73813,3.755807 -0.92781,4.592117 -0.56898,2.518537 -1.03259,5.063182 -1.37397,7.622869 -0.51491,3.872497 -2.16569,11.332358 -0.27425,14.937746 1.28657,-9.859256 2.07856,-19.581349 5.23657,-29.081061 1.17358,-3.533229 1.71179,-8.50298 4.79014,-10.767795 0.94035,-0.691127 3.18294,-2.199943 4.398,-1.868626 0.55566,0.149887 1.35815,1.224613 2.00114,1.560568 1.0175,0.53607 2.26103,0.693711 3.36776,0.921723 -1.46037,1.284118 -3.45975,0.939614 -4.72585,2.893588 -1.17378,1.812435 -1.26118,4.506703 0.55901,5.945877 3.76471,2.971248 11.50474,-1.009787 15.57737,-1.545328 -0.9868,1.851001 -2.00443,3.737452 -2.49126,5.798043 1.02288,0.214892 2.58377,-3.29786 3.02402,-3.970367 1.1482,-1.750015 2.11465,-3.502615 4.43926,-3.753156 -4.63609,8.564538 -9.53673,17.013115 -14.66747,25.296034 -2.43477,3.929416 -5.03101,7.77865 -7.60678,11.61994 -2.49657,3.72466 -4.99774,8.44063 -8.71403,11.09911 2.54447,1.27557 8.65479,-8.07352 9.86223,-9.71951 3.64911,-4.96975 7.27616,-9.996485 10.34605,-15.349835 2.96045,-5.163373 6.00809,-10.272874 8.84775,-15.509732 2.53456,-4.666928 4.7824,-9.776429 8.8011,-13.392486 3.79823,-3.41899 8.69087,-3.965199 12.88343,-6.618317 4.17025,-2.637282 8.28867,-6.049115 10.82389,0.09814 0.93759,2.278067 1.31945,4.690716 2.58312,6.841691 1.29976,2.215117 3.09882,3.760445 4.97727,5.456124 4.53637,4.10031 6.83014,9.843951 10.59295,14.593708 -4.43926,1.09202 -8.06363,2.557102 -11.92814,5.075838 -3.31927,2.163433 -5.68456,4.793491 -8.62723,7.355762 -3.4728,3.029031 -7.28875,4.012377 -11.84021,4.053457 -1.52546,0.0132 -12.60983,-1.692361 -12.86637,-0.980693 6.06642,2.308613 12.58687,3.307863 19.04564,2.433183 -2.2708,2.9686 -7.34059,5.1533 -10.70579,6.53291 -3.90322,1.60225 -8.01442,2.29867 -11.72802,4.39525 -3.82383,2.15886 -7.1969,4.9492 -11.1946,6.83572 -4.23652,1.99851 -8.78857,3.23299 -13.07384,5.13541 -3.40384,1.50948 -7.71188,4.37206 -11.48709,4.61524 -3.45968,0.2253 -8.08069,-3.49141 -10.71025,-5.51046 -7.81444,-6.00279 -9.3399,-13.82253 -9.84452,-23.22596 1.56109,4.38199 2.65542,8.9376 4.62094,13.16984 -0.0846,-1.67978 -0.86135,-3.22504 -0.96363,-4.89951 0.98672,1.12846 1.35093,2.89637 2.13236,4.18519 0.92781,1.52737 2.05035,2.64788 3.32643,3.87243 0.50002,0.47842 5.44908,6.24068 5.87477,5.88087 0.99138,-0.83624 -3.92664,-5.77485 -4.60585,-6.45802 -2.05291,-2.06344 -3.42688,-3.68623 -4.54949,-6.42225 -1.1146,-2.71481 -1.92706,-5.58799 -3.17493,-8.23852 -1.49193,-3.166059 -3.4938,-5.948457 -4.88266,-9.194036 -1.2533,-2.930099 -2.65266,-5.462088 -4.60538,-7.990698 -1.42502,-1.842717 -4.10071,-4.630416 -3.65783,-7.195537 2.73467,5.442938 8.50388,5.513045 13.25092,8.598465 2.81413,1.829995 4.26985,1.364362 4.84139,4.778184 0.35371,2.099223 0.18174,8.966028 1.92963,10.284002 0.0282,-3.269364 -0.26625,-6.600422 -0.66405,-9.843947 -0.11482,-0.957704 -0.70454,-2.202726 -0.0741,-2.948189 0.76634,-0.913705 2.8016,-0.727638 3.78059,-2.119698 0.141,6.623485 0.8227,13.257904 1.76284,19.808694 0.4003,2.77246 0.44872,10.09986 2.83717,12.11625 -1.32995,-6.5223 -2.0268,-13.28845 -2.71651,-19.909477 -0.60992,-5.850392 0.59464,-14.024042 -1.9583,-19.374808 2.36581,0.07766 4.78759,0.264524 7.07933,-0.47577 -1.28454,7.019276 -1.77662,14.196922 -1.02032,21.305058 0.94296,-1.058888 0.41289,-4.407904 0.51006,-5.823753 0.15609,-2.259713 0.34623,-4.519359 0.60999,-6.771518 0.3255,-2.761857 0.19755,-9.168197 2.94739,-10.74997 m 131.93768,-7.860755 c -1.14033,1.532605 -1.80694,3.470808 -2.37054,5.272641 -0.29263,0.934115 -0.0361,3.134787 -0.32543,3.695971 -1.05897,2.068146 -5.98244,1.88718 -7.92257,2.314049 -3.5804,0.789727 -4.48256,0.204754 -1.80431,-2.197293 2.96563,-2.658552 5.87418,-5.704612 9.28335,-7.80125 3.39604,-2.086501 5.19247,-3.192038 8.6574,-0.686422 3.21627,2.327235 6.09201,5.120103 8.94742,7.866718 3.15984,3.036187 6.21732,6.173094 9.29843,9.289526 1.38374,1.400078 6.75074,7.95677 8.75189,7.306793 -0.47896,-1.26828 -2.5116,-2.600836 -3.4236,-3.55642 -1.35356,-1.413331 -2.6835,-2.844686 -4.00622,-4.285914 -2.31674,-2.518537 -4.60264,-5.065767 -6.9174,-7.587153 -2.47289,-2.691419 -4.91298,-5.466727 -7.56302,-7.984734 -1.43032,-1.356344 -5.44114,-3.442845 -5.33354,-5.016599 0.0177,-0.256506 1.4966,-3.564505 1.7223,-3.846654 0.70204,-0.877459 1.76101,-0.69835 2.75502,-0.740294 3.05551,-0.129148 6.91018,1.53287 9.79839,0.33675 2.32723,-0.965457 2.91904,-3.06468 3.78052,-5.202402 1.1482,-2.852703 4.56458,-3.595317 5.43327,-6.326096 1.34306,0.988517 1.75838,4.040011 2.40137,5.438234 1.02288,2.213129 2.41187,4.239595 3.66505,6.326095 2.64742,4.41579 5.4897,8.697065 8.21388,13.063157 2.80685,4.496631 5.40571,9.116446 8.24537,13.592071 1.32994,2.091139 2.69072,4.159284 4.09021,6.202051 0.8103,1.1775 2.84228,5.450889 4.36249,5.588054 -10.25964,-16.692334 -19.6578,-33.900329 -28.63867,-51.309766 1.9585,0.297655 6.72516,6.758332 7.74016,6.240153 -2.14483,-2.989074 -4.31853,-6.03076 -7.75525,-7.630358 -1.30698,-0.610882 -2.5759,-0.805033 -3.70376,-1.661752 -1.44804,-1.097255 -2.7373,-2.277538 -4.32575,-3.282156 0.88903,-0.954855 5.989,1.425987 6.93511,1.762737 3.42426,1.213945 6.27638,1.785731 9.89025,1.53466 6.19436,-0.429387 10.75434,3.458151 11.58695,9.551795 0.83589,6.105505 2.01689,12.162638 5.03108,17.616178 2.94725,5.342748 7.72507,9.362282 10.81077,14.637508 3.57778,6.114053 2.96497,12.914064 0.62265,19.462205 -1.59698,4.46019 -6.66086,11.41784 -11.64863,12.33691 -6.38923,1.18015 -11.2051,-1.22985 -17.16654,-2.93017 -6.62018,-1.88983 -11.38946,-5.76424 -17.20525,-9.23578 -3.13425,-1.86863 -6.38922,-3.52521 -9.7413,-4.96975 -1.6252,-0.69842 -3.27073,-1.36635 -4.97728,-1.840132 -1.28139,-0.354509 -3.80086,-0.116623 -4.77978,-0.80775 -1.85811,-1.309364 -2.31214,-5.637686 -2.45321,-7.679988 -0.29721,-4.262589 -0.1076,-8.557249 -1.02484,-12.75828 7.23233,7.296987 16.58719,10.752554 25.09369,16.201389 4.17747,2.673859 7.50659,6.382481 11.66634,9.033021 4.00098,2.54716 8.73483,4.86638 13.30466,6.12936 -0.19027,-1.29148 -5.57499,-3.1833 -6.86622,-3.88237 -2.80948,-1.51412 -5.58746,-3.10378 -8.17582,-4.97771 -2.57065,-1.858018 -4.74698,-4.179819 -7.3301,-6.018097 -2.69137,-1.914878 -5.66684,-3.379961 -8.59376,-4.896729 -5.52579,-2.86589 -10.96431,-5.971719 -15.64895,-10.115763 -1.54318,-1.364362 -3.64471,-2.671009 -3.96752,-4.566274 -0.15878,-0.944253 2.88034,-6.874822 1.58124,-7.00397 M 258.91968,46.308064 c -0.36086,-0.579804 6.59183,-1.884596 7.76575,-2.888419 -1.23284,-0.121925 -2.45767,0.494391 -3.67482,0.284203 -0.0749,-3.328408 -1.71252,-0.57722 -0.47437,0.163075 -1.57343,0.19932 -1.92707,0.541239 -1.74539,-1.104743 0.27169,-2.435708 3.27544,-3.083035 5.14661,-3.204429 5.2535,-0.341919 10.52865,1.133699 15.81035,1.076779 10.08774,-0.104033 20.15776,0.147038 30.22778,0.695765 -0.90478,1.235149 -2.02017,1.317978 -3.33961,1.858753 -1.76888,0.724988 -3.17821,1.899638 -4.61838,3.134787 -2.8705,2.456449 -5.61567,5.059869 -8.59902,7.381936 -3.05486,2.378722 -5.94044,4.31772 -9.52872,5.694474 -3.52661,1.351175 -5.44115,3.618575 -7.82743,6.40919 -2.30624,2.694267 -5.41818,3.905363 -8.75976,4.930655 -3.49643,1.073931 -8.52488,2.821361 -12.18993,2.244141 -2.50372,-0.396255 -2.99325,-3.352263 -1.55308,-5.316838 1.80969,-2.463672 7.25333,-3.235043 10.04719,-4.413272 -2.43504,-1.620073 -9.45977,1.895264 -10.92888,-2.316633 -1.53209,-4.402338 8.19426,-3.398581 10.20053,-4.692505 -2.21183,-0.921194 -10.74641,1.544996 -9.73869,-3.434562 0.73275,-3.634678 10.9458,-2.153559 10.63106,-4.149478 -1.44804,0.354576 -6.54085,1.136549 -7.64319,0.02067 -0.84034,-0.848966 -0.32549,-2.534043 0.792,-2.373554 m 60.46539,50.070509 c 1.32207,-1.426716 4.5823,-1.959407 6.57622,-2.40463 1.91192,-0.427333 4.14401,0.328732 6.11498,0.5148 2.35544,0.225229 4.0679,-0.100655 6.47452,0.403543 2.48601,0.52083 5.47657,1.744582 7.99342,0.991366 1.98606,-0.59246 2.46567,-1.335339 4.4491,-0.172881 1.77348,1.040269 2.97351,2.018912 5.09013,2.45625 2.4578,0.509565 5.21085,0.388303 7.59647,1.136417 1.16657,0.367098 2.03789,1.141047 3.28582,1.412727 1.18428,0.25644 2.47354,-0.0875 3.62436,0.35252 -1.82268,1.60689 -5.89779,-0.92702 -8.02229,-0.43999 2.08119,0.82034 4.28507,1.28088 6.48174,1.66389 -0.29984,1.04098 -8.60361,0.0338 -10.30556,0.51552 -3.74969,1.06617 -5.88731,4.38465 -8.93692,6.5614 -3.22414,2.29868 -6.27441,3.38804 -10.24192,2.94275 -2.24456,-0.25313 -4.25949,-1.10262 -6.4404,-1.58105 -2.05561,-0.45059 -4.11383,0.0311 -6.13335,-0.3545 1.58911,-1.35641 1.91191,-3.98641 -0.37661,-4.67223 6.18977,1.11786 12.34346,-0.49698 18.3915,-1.66189 -1.4605,-0.79715 -3.0109,-0.0391 -4.55932,-0.0908 -1.37128,-0.0464 -2.43484,-0.47577 -3.69589,-0.97274 -1.11998,-0.43801 -1.91454,-0.95817 -3.14737,-1.08208 -1.03272,-0.10404 -2.36791,0.52281 -3.32649,0.20674 -1.13049,-0.36975 -0.82999,-1.33521 -1.67637,-1.91501 -0.89953,-0.613598 -2.06282,-0.502275 -3.08308,-0.489685 -1.40408,0.01855 -2.7806,0.424745 -4.18993,0.284932 -1.57402,-0.155056 -3.01944,-0.90847 -4.60592,-1.022443 1.08128,-0.797148 1.68162,-1.796334 2.66316,-2.582946 m 25.35483,-3.595317 c 0.88182,0.434622 1.74001,0.993951 2.38104,1.751871 -2.71959,0.867321 -5.93061,-0.235301 -8.70597,-0.634207 -1.30763,-0.186067 -2.65069,-0.209392 -3.69129,-1.125681 -0.48946,-0.429453 -0.86607,-1.879163 -1.52218,-1.95139 -0.78668,-0.08283 0.005,1.465017 -0.26113,1.648566 -0.62265,0.427332 -2.50176,0.708952 -3.22677,0.670651 -1.04584,-0.05725 -3.67029,-2.453864 -3.63945,-2.46705 -0.91987,0.380285 0.28212,1.146952 -0.0203,1.625307 -0.44091,0.696494 -0.72566,1.048286 -1.71508,1.426716 -1.54515,0.589612 -3.69785,-0.02591 -5.03108,0.923778 -1.17116,0.83346 -1.51168,2.539277 -2.82391,3.38334 -0.47437,0.302824 -3.84941,0.978047 -3.84941,1.221234 2.89805,0.401555 5.73836,1.239784 8.61607,1.612844 1.54318,0.19945 6.52833,-1.31996 7.12014,0.82564 -1.75838,-0.64474 -2.60149,0.16566 -3.45771,1.44189 -0.19946,0.29752 0.19224,1.06618 -0.061,1.46243 -0.25129,0.38566 -2.404,1.03769 -2.67104,1.13112 -4.48781,1.5996 -9.02417,1.8017 -13.68323,1.08208 -2.18617,-0.33927 -8.15811,-1.43394 -7.95537,-4.53506 0.0768,-1.19076 3.606,-3.781648 4.42089,-4.470256 1.65799,-1.395374 2.88099,-3.132203 4.47272,-4.586617 6.55325,-5.986761 14.98037,-8.257076 23.43504,-5.536369 2.3994,0.771371 4.72401,1.76996 7.03025,2.769344 0.73025,0.31601 2.22225,0.659784 2.77339,1.219113 0.46912,0.473717 0.0971,1.151591 0.4993,1.57117 0.67448,0.699145 1.61207,1.669771 2.26621,0.895881 0.023,-0.02591 -1.4382,-1.822242 -0.70007,-1.356345 M 300.57038,52.202123 c 1.12261,-1.57117 5.39719,-5.296429 8.24997,-6.342131 2.71696,-0.996535 4.98514,-0.55648 7.68111,0.0054 3.27531,0.678471 5.21544,-0.479084 8.23487,-1.588995 5.23316,-1.923691 6.79405,2.541796 10.46435,5.624367 2.29114,1.92548 4.6105,3.794836 6.85572,5.777568 1.52481,1.348326 5.02582,3.359485 4.6958,5.735689 -2.71959,-2.156143 -5.98703,-2.973833 -9.01696,-4.51916 -1.49134,-0.761499 -2.27802,-1.938932 -3.57253,-2.883715 -1.69409,-1.229252 -3.24973,-1.05372 -5.2745,-0.919139 -3.28318,0.215356 -7.35043,-0.111323 -8.6141,3.40143 -0.53801,1.496094 0.0177,1.465017 -1.37653,2.541796 -0.93233,0.71962 -2.6087,1.59423 -3.79823,1.415849 0.4947,-1.338453 1.63568,-3.305083 0.96907,-4.775335 -0.7893,-1.750015 -2.50635,-1.261057 -4.13679,-1.473034 -4.03378,-0.528318 -7.1759,-3.1654 -11.36125,-2.000623 m 44.82301,161.62029 c -4.34937,-0.049 -8.48288,0.0258 -12.80667,0.65733 -3.709,0.54071 -6.82292,1.75267 -10.55948,1.24244 -6.75337,-0.92172 -15.94157,-1.94881 -21.17735,-6.90862 2.89083,-0.26373 6.4509,1.17286 9.43359,1.36437 3.19133,0.20674 6.38726,0.23258 9.58056,0.19415 3.08045,-0.0365 6.02311,0.163 9.04976,0.73221 1.71443,0.32402 7.17853,2.52662 8.62198,1.72682 0.13319,-2.37885 -13.09667,-3.74587 -14.5657,-3.7896 -5.85844,-0.17096 -11.72802,-0.13187 -17.5917,-0.28957 2.06085,-1.66454 7.59647,-2.41265 10.14678,-2.67903 4.26736,-0.45059 8.70334,0.0901 12.93002,0.71697 3.8107,0.56125 7.59647,1.44388 11.08175,3.12365 1.72754,0.83095 3.39866,1.83815 4.88016,3.0627 0.15091,0.12391 1.2125,1.08937 1.27877,0.99395 -0.0846,0.12126 -0.31231,-0.0159 -0.30247,-0.14777 m 9.71638,-136.520462 c 4.18272,-0.230596 7.85039,-3.616521 11.4308,-5.577982 -2.17896,1.930914 -4.20569,4.169886 -6.90756,5.381246 -1.02747,0.460531 -5.06913,0.77654 -4.52324,0.196736 m 18.28389,132.143102 c -1.61731,0.0987 -2.56015,-2.57035 -4.35987,-2.45903 2.71172,-0.0258 5.40572,-0.84353 8.10431,-0.1756 -1.80693,2.10916 -3.74444,0.0365 -5.61567,0.7554 0.91265,0.68384 1.86861,1.87194 1.87123,1.87923 M 325.84582,103.92597 c -0.95333,-0.67257 2.89149,-2.59885 2.88624,-1.4134 0,0.69908 -2.37579,1.36171 -2.88624,1.4134 m 3.58041,-32.691754 c 0.59247,0.300239 2.81144,1.843447 2.93741,2.44916 -1.09439,0.0021 -2.81406,-2.306561 -2.93741,-2.44916 m 30.9659,43.030164 c 0.24079,-0.56192 0.64562,-0.94757 1.21972,-1.15696 -0.66662,0.89257 -3.47806,3.02823 -4.70565,2.53656 0.75585,-1.18015 2.14024,-1.35641 3.48593,-1.3796 M 342.94346,62.972502 c 0.98942,0.186399 1.81941,0.79178 1.52481,1.902487 -0.15353,-0.196736 -1.46313,-1.995919 -1.52481,-1.902487 m 53.97316,-12.419674 c 0.63512,-0.338605 0.14304,-1.369067 2.10875,-1.185517 -0.70204,0.398839 -1.40408,0.792576 -2.10875,1.185517 m -45.80521,28.157219 1.91192,1.320099 c -0.64562,0.828292 -1.98868,-1.346471 -1.91192,-1.320099 m 63.07935,49.518673 c -0.0538,-0.20211 0.005,-0.35981 0.17912,-0.47909 -0.005,0.53342 -0.35627,1.29677 -0.65611,1.85869 0,-0.51752 0.1614,-0.97871 0.47699,-1.3796 M 370.47199,63.409972 c -0.42319,0.323299 -4.6853,-3.7843 -5.16164,-4.081955 1.40146,0.243319 5.26662,3.40872 5.16164,4.081955 M 327.33782,222.71628 c -0.66661,-0.53607 3.49314,-2.74397 3.9288,-2.85264 2.51685,-0.63414 6.46862,0.82299 8.683,-0.0855 -1.05831,-1.65128 -7.31697,-1.49358 -9.01105,-1.18015 -1.12524,0.20939 -6.74288,5.04993 -6.68645,5.07842 -0.0643,-0.0311 0.0407,-5.79539 -0.14369,-6.34935 6.19961,-1.03305 12.19977,-2.64789 18.5634,-2.17145 2.98794,0.22264 5.96407,0.80709 8.69088,2.09657 2.28064,1.07943 3.68276,1.5943 2.66513,4.11032 -1.11474,-0.57252 -2.44206,-1.63605 -3.74706,-1.14702 2.72483,1.34117 3.69325,1.587 3.38882,4.57151 -1.36668,-1.0251 -2.694,-2.31193 -4.49569,-2.43584 0.64299,0.50227 5.61764,4.11296 5.36438,5.14336 -2.09169,-0.31343 -4.89788,-3.40925 -7.06896,-4.16731 2.2275,3.11637 6.45615,4.08448 8.73221,7.39499 0.92249,1.34051 2.0451,3.04149 2.67563,4.52182 0.64299,1.50417 0.20274,3.49936 1.5353,4.67222 -0.0157,-2.36626 -0.16665,-6.91921 2.53981,-3.00239 1.27877,1.84809 3.79037,3.71141 4.62626,5.61648 3.20576,0.39361 3.23135,6.36261 2.43746,8.31407 -0.67186,1.64863 -1.45592,2.85992 -3.36062,2.46168 -1.96571,-0.41415 -2.39087,-2.69957 -3.83366,-3.73527 -0.63315,1.07413 1.00188,2.8109 1.61469,3.53052 1.32994,1.56646 1.31485,0.59835 1.74001,2.956 0.59969,3.32642 0.98155,6.63694 0.75125,10.01438 -0.20799,3.02095 -0.29984,7.07428 -1.74591,9.81029 -1.11999,2.11712 -3.73657,4.13881 -5.56384,5.64829 -10.00572,8.26702 -24.36869,8.80044 -33.88955,-0.64739 -10.53126,-10.45702 -8.53734,-25.77777 -7.63518,-39.18351 0.48421,-7.20879 1.8194,-13.06846 8.24209,-17.25696 2.51947,-1.64333 5.21806,-3.1601 8.27358,-3.3854 3.10867,-0.23059 6.32231,1.13907 9.34436,0.74812 -3.98523,-3.23829 -13.27119,-2.38946 -16.83585,1.08208 -0.12335,-0.19681 0.0919,-0.37837 0.22045,-0.17096 m 40.17904,31.95881 c 3.00631,-0.16036 4.2234,-3.41654 4.55146,-6.00478 0.49995,-3.94466 -1.62716,-5.32228 -3.94915,-7.97016 -1.86598,-2.12772 -3.00368,-6.53555 -6.00474,-7.32011 -1.95063,-0.50957 -1.75314,0.67323 -2.83769,-0.87733 -1.03272,-1.47237 -0.8044,-4.00694 -0.75059,-5.68937 0.0997,-3.10576 1.96046,-5.90937 3.2471,-8.75405 0.87919,-1.95146 3.80086,-3.47883 5.82563,-4.28857 2.93938,-1.17551 5.61567,-0.45324 8.03213,-3.09582 1.05634,-1.15166 1.24596,-1.75001 2.79373,-2.45108 1.59698,-0.72227 3.35208,-0.97606 4.93397,-1.807 13.9214,-7.31216 18.98069,-21.25861 20.68002,-35.91408 0.41532,-3.57755 1.77872,-6.68067 3.05486,-10.00974 1.4815,-3.86713 2.31477,-7.90455 3.26548,-11.9274 1.83514,-7.75745 4.18271,-15.15509 6.61755,-22.74158 0.47896,-1.48828 0.73288,-3.83864 1.50184,-5.16921 0.912,-1.57905 0.95858,-1.09732 3.10342,-0.76865 3.43737,0.52547 7.3688,1.32792 10.6802,-0.15241 3.06011,-1.36966 5.2535,-4.57416 7.34256,-7.07692 2.3502,-2.8215 3.66505,-5.36336 4.21618,-8.99724 0.53539,-3.53581 1.99655,-7.480337 1.00451,-11.013499 -0.99926,-3.564504 -3.23201,-7.558196 -5.36175,-10.563836 -4.38743,-6.1884 -8.93954,-11.414392 -11.14342,-18.871868 -2.03789,-6.895298 -1.19938,-14.751348 -8.64757,-18.38523 -3.53645,-1.726956 -6.7888,-0.219994 -10.44138,-0.79463 -4.09021,-0.642225 -7.71983,-3.003055 -11.81791,-3.727314 -1.84761,-0.326678 -3.59025,0.312697 -5.34601,0.100654 -1.57598,-0.191501 -2.2813,-0.828292 -3.93667,-0.553895 -3.80874,0.631556 -7.31697,2.150975 -11.19526,0.950216 -3.38292,-1.048286 -6.07364,-1.900432 -9.74918,-1.781092 -4.5134,0.144918 -8.86277,0.773956 -13.39651,0.429916 -7.69358,-0.584972 -14.71399,-0.846646 -22.40757,-0.181429 -3.07586,0.266313 -5.86696,-1.117942 -9.08848,-0.799825 -4.01869,0.393697 -7.83464,1.439134 -11.90976,1.547872 -8.21191,0.214561 -16.34902,-1.09202 -24.57602,-0.680524 -7.7277,0.390357 -15.08272,-0.693645 -22.70544,-1.501508 -2.56809,-0.271779 -7.25523,0.287576 -9.45728,1.920358 -0.94802,0.704314 -1.13232,1.892349 -1.95528,2.617403 -1.15076,1.011775 -3.15243,0.773889 -4.5592,0.708951 -3.21699,-0.150417 -7.26901,-1.193535 -10.02134,1.097255 -2.10704,1.760617 -2.13236,4.79422 -4.16454,6.647009 -1.14105,1.038214 -2.61192,1.71145 -3.78033,2.74655 -1.11027,0.97871 -1.98887,2.523971 -3.1809,3.349678 -2.74261,1.902488 -5.10252,-1.180812 -8.04991,-0.986727 -6.47656,0.432832 -8.21191,10.126431 -9.59106,14.987444 -1.02747,3.620696 -1.90656,6.72964 -0.20989,10.280693 1.52467,3.186538 3.97539,5.84721 5.55642,9.018508 1.48629,2.979267 3.56742,6.022742 3.89803,9.372288 0.38724,3.908872 0.008,7.716372 0.84573,11.609342 1.59187,7.39764 6.3538,12.15468 12.55354,16.12055 2.43228,1.5552 5.29739,3.67827 8.30114,3.79954 2.30152,0.0908 7.76366,-3.1992 8.76548,-1.80369 0.51262,0.71697 0.23298,3.81478 0.60231,4.9333 0.45081,1.369 1.15102,2.63265 1.86611,3.87707 1.34759,2.35831 5.01284,6.24599 5.18454,8.95616 0.0664,1.06419 -1.10233,2.50011 -1.35809,3.5643 -0.47443,1.94881 -0.25116,3.66238 0.59713,5.48462 1.49653,3.2151 4.8742,5.93521 5.59979,9.51807 0.56899,2.81089 -1.41451,5.41438 -0.42312,8.52875 1.26892,3.98309 4.6622,5.06252 7.40489,7.63553 2.13433,2.00115 0.68432,4.93331 1.74263,7.64613 1.18363,3.03883 3.91831,4.64108 5.93586,7.03253 1.88107,2.2291 3.09094,5.00354 5.72524,6.50242 3.38095,1.92561 7.92715,2.57831 11.64075,3.68358 1.65603,0.49432 3.57057,0.78654 4.97465,1.83748 1.25121,0.93696 2.21241,2.58825 3.32453,3.71207 2.38825,2.41464 5.06191,4.36146 8.33722,5.37065 3.16509,0.97606 6.78946,1.3796 10.08774,1.15166 1.10424,-0.0749 2.53194,-0.66529 3.29303,0.0775 0.65874,0.6421 -0.0584,4.05863 -0.24801,4.96247 -0.74338,3.49406 -3.29106,6.69326 -4.59279,10.04552 -1.2663,3.25618 -1.93029,6.23273 -2.65529,9.69632 -0.79193,3.79689 -0.0899,6.78934 0.18699,10.5478 0.29984,4.08977 0.47175,8.21798 1.21709,12.26335 1.202,6.52562 4.85983,12.81534 10.1107,16.90511 5.51857,4.29917 12.47927,6.29767 19.44784,5.61979 6.95611,-0.67588 15.69029,-6.02864 19.60925,-11.87041 3.89797,-5.81925 3.09816,-15.84622 1.85286,-22.32545"
             style="fill:#672d06;fill-opacity:1;fill-rule:nonzero;stroke:none;stroke-width:0.06593651"
             id="path32"
             inkscape:connector-curvature="0" /></g><path
           inkscape:connector-curvature="0"
           id="path34"
           style="fill:#672d06;fill-opacity:1;fill-rule:nonzero;stroke:none;stroke-width:0.06593651"
           d="m 318.45733,97.68522 c 1.63766,-0.471132 15.49017,-0.09787 15.59252,-0.610882 0.17191,-0.877194 -6.88918,-0.449861 -7.68898,-0.468481 -2.3502,-0.05699 -6.67333,-1.423403 -7.90354,1.079363" /><path
           inkscape:connector-curvature="0"
           id="path36"
           style="fill:#672d06;fill-opacity:1;fill-rule:nonzero;stroke:none;stroke-width:0.06593651"
           d="m 367.58575,242.54625 c -0.36611,0.30481 -0.46387,-0.4559 -0.85294,-0.15837 0.41728,-0.49963 1.85023,6.02069 1.70917,6.88012 -0.55113,3.38341 -1.96834,1.52472 -4.03116,0.35186 -0.94611,1.8123 3.37767,3.84129 4.4491,0.45589 0.71517,-2.25693 0.24605,-5.27257 -0.71516,-7.06897 -0.82801,0.34655 -0.35364,-0.23855 -0.55901,-0.46053" /><path
           inkscape:connector-curvature="0"
           id="path38"
           style="fill:#672d06;fill-opacity:1;fill-rule:nonzero;stroke:none;stroke-width:0.06593651"
           d="m 258.95576,46.274138 c -0.69941,0.507577 -0.63045,2.68446 0.38193,2.158992 0.84829,-0.439989 -0.17197,-1.473034 0.6922,-2.174233 -0.54077,-0.176261 -0.7691,-0.10072 -1.07413,0.01524" /><path
           inkscape:connector-curvature="0"
           id="path40"
           style="fill:#672d06;fill-opacity:1;fill-rule:nonzero;stroke:none;stroke-width:0.06593651"
           d="m 401.21941,120.27711 c -5.16164,5.53896 -10.92034,9.68307 -17.04581,14.06572 -6.27966,4.49597 -11.90517,9.85668 -17.57398,15.08221 -5.60321,5.1639 -11.25693,10.46232 -15.66273,16.71625 -2.18092,3.09582 -4.22078,6.3414 -6.04805,9.65722 -0.34905,0.63149 -3.28581,7.04578 -2.46567,6.72441 1.72229,-0.67258 3.41375,-6.04123 4.35199,-7.70511 1.81153,-3.21509 3.84417,-6.30562 6.09201,-9.23313 4.72336,-6.1446 10.36462,-11.41254 16.13644,-16.5453 5.68194,-5.04993 11.19985,-10.21648 17.44801,-14.58324 3.0424,-2.12506 6.13335,-4.11561 8.88836,-6.62103 1.8942,-1.71821 5.77708,-4.73915 5.87943,-7.558" /><path
           inkscape:connector-curvature="0"
           id="path42"
           style="fill:#672d06;fill-opacity:1;fill-rule:nonzero;stroke:none;stroke-width:0.06593651"
           d="m 292.50479,169.67445 c 0.10497,0.15771 0.14106,0.31343 0.0125,0.47644 -0.16665,-0.15572 -0.0741,-0.31608 -0.0125,-0.47644 m 11.71752,34.19785 c 2.45779,-2.33445 1.00713,-8.12985 0.40022,-10.95399 -0.84572,-3.90622 -2.23275,-7.62294 -4.12432,-11.14019 -1.83974,-3.43245 -4.15713,-6.56206 -5.85122,-10.07468 -0.91462,-1.90242 -1.70917,-3.86183 -2.383,-5.86232 -0.35627,-1.05624 -0.55113,-4.16267 -1.61469,-4.74247 -0.6922,3.51262 0.51242,7.79124 1.15541,11.25748 0.60231,3.24028 1.38178,6.45538 2.28918,9.62608 1.84499,6.44543 4.64397,13.97759 2.80882,20.76163 3.86516,-1.64598 1.07668,-12.64702 0.20011,-15.44267 -1.65602,-5.28782 -4.66758,-11.36549 -4.50355,-17.02107 1.74329,2.39409 2.76551,5.52106 4.35724,8.07353 1.59436,2.5571 3.29828,4.99294 4.47207,7.79058 1.17903,2.8089 2.10415,5.84509 2.73205,8.83158 0.30247,1.43195 0.5741,2.91757 0.58197,4.38796 0.008,1.51411 -0.63052,3.03088 -0.52029,4.50855" /><path
           inkscape:connector-curvature="0"
           id="path44"
           style="fill:#672d06;fill-opacity:1;fill-rule:nonzero;stroke:none;stroke-width:0.06593651"
           d="m 333.89108,170.00047 c 1.03009,0.0311 2.91904,-4.36676 3.40588,-5.148 1.43032,-2.28609 2.92232,-4.53772 4.49306,-6.72772 3.01681,-4.21104 6.24094,-8.32135 10.13629,-11.75644 3.95701,-3.49407 8.46057,-6.31026 12.83028,-9.25103 2.36332,-1.58899 4.75682,-3.13956 7.08668,-4.77295 0.50193,-0.35186 3.73394,-2.1794 2.12712,-2.47957 -1.10752,-0.20741 -4.59542,2.49481 -5.554,3.04414 -2.49126,1.42598 -4.91297,2.9348 -7.31697,4.50325 -4.39071,2.86059 -8.65544,5.82919 -12.34345,9.5797 -3.15,3.20449 -5.87418,6.79729 -8.2913,10.57629 -2.15796,3.3675 -6.05855,8.37635 -6.57359,12.43233" /><path
           inkscape:connector-curvature="0"
           id="path46"
           style="fill:#672d06;fill-opacity:1;fill-rule:nonzero;stroke:none;stroke-width:0.06593651"
           d="m 334.88574,122.23917 c -0.8103,0.93166 -0.93299,2.21585 -0.91265,3.3907 -5.01074,-3.73527 -10.45713,-3.82009 -16.21846,-5.43294 -3.38291,-0.94756 -11.80215,-4.22163 -12.28637,-8.38629 -1.86336,2.7718 4.34675,6.48917 6.23045,7.58915 3.32649,1.9435 6.90428,2.9739 10.6953,3.52256 3.53382,0.51287 6.79142,1.28683 9.83119,3.28202 1.36603,0.89588 2.63692,1.95941 3.63421,3.26148 0.56623,0.74281 1.57336,3.93207 2.5116,4.13351 0.84573,-2.32651 -1.97621,-4.81138 -2.91117,-6.63097 -0.56426,-1.09799 0.0866,-4.14411 -0.5741,-4.72922" /><path
           inkscape:connector-curvature="0"
           id="path48"
           style="fill:#672d06;fill-opacity:1;fill-rule:nonzero;stroke:none;stroke-width:0.06593651"
           d="m 356.15299,127.37723 c -6.91478,2.08067 -14.58867,9.05953 -17.92042,15.33864 -2.00639,3.779 -3.32124,7.93901 -4.2772,12.09571 -0.47699,2.07603 -0.84573,4.17526 -1.16919,6.27978 -0.15615,1.02973 -1.21971,4.48007 -0.67645,5.43558 0.66398,1.17021 1.40211,-3.12166 1.48937,-3.5749 0.41008,-2.17676 0.76372,-4.36411 1.24793,-6.52496 0.98942,-4.4032 2.36529,-8.87862 4.54949,-12.84912 1.89616,-3.45034 4.58492,-6.23803 7.52693,-8.81369 1.05371,-0.92106 9.48017,-6.80458 9.22954,-7.38704" /><path
           inkscape:connector-curvature="0"
           id="path50"
           style="fill:#672d06;fill-opacity:1;fill-rule:nonzero;stroke:none;stroke-width:0.06593651"
           d="m 293.39644,186.47552 c -0.01,-4.37404 -2.75239,-9.02308 -3.48789,-13.37923 -0.3589,-2.12506 -0.74075,-4.34091 -0.73288,-6.49977 0.005,-1.62544 0.6279,-3.13161 -0.19749,-4.59139 -2.20192,6.11876 -1.11474,12.93395 -0.93824,19.26541 0.0846,3.03884 -0.10236,6.05183 -0.6174,9.05157 -0.10498,0.60035 -1.89683,7.16506 -1.39424,7.40294 0.87394,0.4115 2.97284,-9.69631 3.10341,-10.68231 0.62527,-4.61789 -0.0689,-9.32856 -0.15353,-13.96699 0.92249,4.63048 2.66775,9.03567 4.41826,13.39977" /><path
           inkscape:connector-curvature="0"
           id="path52"
           style="fill:#672d06;fill-opacity:1;fill-rule:nonzero;stroke:none;stroke-width:0.06593651"
           d="m 331.4359,168.04371 c -1.59435,0.65733 -2.31936,5.24408 -2.94267,6.80458 -0.89428,2.2523 -1.84761,4.47543 -2.82391,6.69128 -0.77946,1.7679 -6.16418,13.01213 -4.1112,14.40698 0.72041,0.48968 4.84933,-10.67172 5.29024,-11.84458 1.97818,-5.22818 4.11055,-10.43648 4.58754,-16.05826" /><path
           inkscape:connector-curvature="0"
           id="path54"
           style="fill:#672d06;fill-opacity:1;fill-rule:nonzero;stroke:none;stroke-width:0.06593651"
           d="m 300.75212,167.99733 c 7.27367,6.53555 13.60451,14.19228 17.71505,23.12458 1.80956,-3.27142 -4.7286,-11.45362 -6.548,-13.80663 -2.38104,-3.08257 -6.92528,-8.9767 -11.16705,-9.31795" /><path
           inkscape:connector-curvature="0"
           id="path56"
           style="fill:#672d06;fill-opacity:1;fill-rule:nonzero;stroke:none;stroke-width:0.06593651"
           d="m 274.00568,182.90393 c 0.10236,-1.58701 0.96055,-2.87053 1.47626,-4.32567 -1.43558,0.75871 -4.29098,5.4051 -1.58911,5.72847 1.58648,0.1915 5.08947,-6.54351 5.72524,-7.73426 0.88969,-1.66454 8.00655,-18.24562 6.6917,-18.85126 -0.99926,-0.46053 -4.56196,10.81948 -4.98974,11.98704 -1.77872,4.86837 -4.1112,9.1185 -7.31435,13.19568" /><path
           inkscape:connector-curvature="0"
           id="path58"
           style="fill:#672d06;fill-opacity:1;fill-rule:nonzero;stroke:none;stroke-width:0.06593651"
           d="m 272.05243,158.9716 c -1.45853,0.92371 -2.3889,2.58559 -3.6447,3.7505 -1.36078,1.25768 -3.16503,2.32916 -4.15976,3.93141 -1.202,1.93886 -1.71173,6.56206 0.91784,7.69052 -0.0157,0.01 -0.57128,-5.16125 -0.28987,-5.94581 1.08973,-3.03089 2.79104,-3.29726 5.37743,-4.33031 2.33708,-0.93166 4.38021,-2.60415 6.16615,-4.33561 1.29976,-1.26563 5.45164,-4.87897 5.18985,-6.78934 -3.63158,3.84393 -7.07092,8.12985 -12.21222,9.97594 0.90215,-1.33852 2.26555,-2.29602 2.65528,-3.9473" /><path
           inkscape:connector-curvature="0"
           id="path60"
           style="fill:#672d06;fill-opacity:1;fill-rule:nonzero;stroke:none;stroke-width:0.06593651"
           d="m 394.4562,110.9744 c -2.26621,0.50228 -4.12432,2.07603 -5.94897,3.40859 -1.61207,1.17551 -3.15263,3.0342 -4.06987,1.25834 -1.45854,-2.81884 1.10752,-7.40294 2.56015,-9.62608 -3.35733,0.83558 -6.24291,9.12115 -3.5955,11.69681 3.15984,3.06998 9.25447,-5.02674 11.05419,-6.73766" /><path
           inkscape:connector-curvature="0"
           id="path62"
           style="fill:#672d06;fill-opacity:1;fill-rule:nonzero;stroke:none;stroke-width:0.06593651"
           d="m 306.84938,203.62382 c 3.38554,-4.08448 0.33856,-12.50986 -1.2991,-16.71294 -0.57935,-1.48629 -7.42261,-15.43473 -8.60427,-14.71047 -0.41269,0.25379 6.50733,12.32631 7.046,13.60519 2.48864,5.91202 3.0319,11.49736 2.85737,17.81822" /><path
           inkscape:connector-curvature="0"
           id="path64"
           style="fill:#672d06;fill-opacity:1;fill-rule:nonzero;stroke:none;stroke-width:0.06593651"
           d="m 403.80319,115.23977 c -4.24702,-0.3492 -7.0998,6.0028 -10.11595,8.07353 -1.82531,1.25039 -3.86779,1.67978 -6.02312,1.92296 -1.04322,0.11928 -5.03632,-0.21469 -5.67931,0.45324 -1.14295,1.18015 4.16697,0.9807 4.59804,0.94227 2.31148,-0.20476 4.69776,-0.46583 6.80192,-1.51412 4.32838,-2.15621 6.40432,-7.23728 10.41842,-9.87788" /><path
           inkscape:connector-curvature="0"
           id="path66"
           style="fill:#672d06;fill-opacity:1;fill-rule:nonzero;stroke:none;stroke-width:0.06593651"
           d="m 267.42093,168.31804 c 4.30607,0.68053 9.33715,-3.63653 12.2995,-6.20689 3.18346,-2.7645 7.94815,-7.10542 8.26308,-11.65572 -2.3935,3.92942 -5.03829,7.66402 -8.47829,10.75984 -3.59025,3.23564 -7.8832,4.86108 -12.08429,7.10277" /><path
           inkscape:connector-curvature="0"
           id="path68"
           style="fill:#672d06;fill-opacity:1;fill-rule:nonzero;stroke:none;stroke-width:0.06593651"
           d="m 282.27074,134.2494 c -0.86607,0.0623 -2.16846,4.22429 -2.71631,5.13011 -1.01763,1.67448 -2.17108,3.50997 -3.7884,4.66693 -1.67374,1.1934 -10.51027,2.57831 -10.32065,5.18444 0.0689,0.99395 4.01344,-1.41273 4.61575,-1.64863 2.07069,-0.82034 4.38743,-1.14635 6.21011,-2.49017 2.63692,-1.94616 6.35839,-7.39499 5.9995,-10.84268" /><path
           inkscape:connector-curvature="0"
           id="path70"
           style="fill:#672d06;fill-opacity:1;fill-rule:nonzero;stroke:none;stroke-width:0.06593651"
           d="m 391.7727,169.72614 c -4.21093,-0.65468 -8.85753,2.16151 -12.37888,4.14146 -1.14361,0.64209 -9.17049,4.96445 -8.79126,6.39574 0.38186,1.44719 3.09882,-1.25768 3.65192,-1.65129 1.73805,-1.22918 3.51415,-2.40999 5.33355,-3.51527 3.99048,-2.42259 8.05575,-3.53515 12.18467,-5.37064" /><path
           inkscape:connector-curvature="0"
           id="path72"
           style="fill:#672d06;fill-opacity:1;fill-rule:nonzero;stroke:none;stroke-width:0.06593651"
           d="m 285.74092,181.5886 c 1.56876,-3.60008 -0.0177,-9.15229 0.25391,-13.03267 0.14632,-2.12772 0.50718,-4.23423 0.97367,-6.31556 0.49734,-2.2132 2.02739,-5.32161 1.90733,-7.56065 -4.20831,8.77989 -4.37759,17.43521 -3.13491,26.90888" /><path
           inkscape:connector-curvature="0"
           id="path74"
           style="fill:#672d06;fill-opacity:1;fill-rule:nonzero;stroke:none;stroke-width:0.06593651"
           d="m 388.7992,182.2075 c -2.0602,0.39626 -4.11055,0.97076 -6.02246,1.84809 -0.38186,0.17361 -4.7109,2.33976 -3.3908,2.81619 0.67121,0.24319 9.48805,-4.03014 9.41326,-4.66428" /><path
           inkscape:connector-curvature="0"
           id="path76"
           style="fill:#672d06;fill-opacity:1;fill-rule:nonzero;stroke:none;stroke-width:0.06593651"
           d="m 294.23496,201.41592 c 2.59361,-2.23108 1.50446,-11.19453 -0.58198,-13.4932 1.06356,4.19844 2.04248,9.30536 0.58198,13.4932" /><path
           inkscape:connector-curvature="0"
           id="path78"
           style="fill:#672d06;fill-opacity:1;fill-rule:nonzero;stroke:none;stroke-width:0.06593651"
           d="m 283.40909,195.90546 c 1.5937,-1.00455 3.29566,-8.52345 2.46239,-10.67502 -0.58656,3.66834 -1.20921,7.16505 -2.46239,10.67502" /><path
           inkscape:connector-curvature="0"
           id="path80"
           style="fill:#672d06;fill-opacity:1;fill-rule:nonzero;stroke:none;stroke-width:0.06593651"
           d="m 255.26769,134.36603 c -0.0131,-0.55927 0.11023,-5.22884 -0.61537,-4.83524 -1.16329,0.63679 0.32602,4.12291 0.61537,4.83524" /><path
           inkscape:connector-curvature="0"
           id="path82"
           style="fill:#672d06;fill-opacity:1;fill-rule:nonzero;stroke:none;stroke-width:0.06593651"
           d="m 270.77367,93.541177 c 3.54695,-2.484876 4.17222,-6.773374 5.83022,-10.46961 1.53793,-3.432507 5.64126,-3.2257 8.79913,-4.41844 3.87763,-1.467667 6.05592,-4.477945 9.12653,-7.06639 0.97105,-0.818153 10.19009,-7.193417 9.84432,-7.998715 -0.64627,-1.496094 -9.07076,4.820129 -9.95455,5.51384 -3.43672,2.691683 -5.69243,6.486585 -9.85481,8.114676 -3.45444,1.348591 -7.25267,0.908536 -9.139,4.558189 -0.51046,0.986198 -4.75682,11.678916 -4.65184,11.76645" /><path
           inkscape:connector-curvature="0"
           id="path84"
           style="fill:#672d06;fill-opacity:1;fill-rule:nonzero;stroke:none;stroke-width:0.06593651"
           d="m 266.41367,79.126247 c -3.84928,5.223474 -7.26311,10.830215 -10.58238,16.398125 -1.64999,2.766562 -3.24697,5.562208 -4.79756,8.386358 -0.66917,1.21659 -4.38008,6.47326 -3.77265,7.70311 1.70668,-0.35451 4.11586,-6.20423 4.99262,-7.70046 1.66568,-2.84734 3.3244,-5.699975 5.02307,-8.528757 1.68411,-2.803536 3.38364,-5.596669 5.04157,-8.412861 0.66123,-1.11508 4.7647,-6.895298 4.09533,-7.845515" /><path
           inkscape:connector-curvature="0"
           id="path86"
           style="fill:#672d06;fill-opacity:1;fill-rule:nonzero;stroke:none;stroke-width:0.06593651"
           d="m 279.78997,71.011638 c 2.8062,-2.117114 5.95095,-3.644485 9.08848,-5.189812 1.03797,-0.5148 8.24471,-3.926104 7.28613,-4.708078 -1.03009,-0.841478 -7.57876,2.754104 -8.77288,3.359817 -2.31411,1.17538 -7.43245,3.517855 -7.60173,6.538073" /><path
           inkscape:connector-curvature="0"
           id="path88"
           style="fill:#672d06;fill-opacity:1;fill-rule:nonzero;stroke:none;stroke-width:0.06593651"
           d="m 281.8915,105.5905 c -4.51077,0.96016 -9.11406,4.85313 -13.00415,7.21675 -2.12712,1.29147 -4.24696,2.60348 -6.45878,3.7452 -0.20018,0.10337 -4.76476,2.18735 -4.01869,2.6015 1.79919,0.99925 9.75968,-4.5841 11.35863,-5.56281 2.03263,-1.24509 4.03181,-2.53921 6.03886,-3.82803 1.14557,-0.73751 5.92011,-2.94342 6.08413,-4.17261" /><path
           inkscape:connector-curvature="0"
           id="path90"
           style="fill:#672d06;fill-opacity:1;fill-rule:nonzero;stroke:none;stroke-width:0.06593651"
           d="m 266.59357,79.382819 c 0.23817,-0.315546 0.22243,-0.455362 -0.044,-0.416995 -0.19736,0.129942 -0.1843,0.269692 0.044,0.416995" /><path
           inkscape:connector-curvature="0"
           id="path92"
           style="fill:#672d06;fill-opacity:1;fill-rule:nonzero;stroke:none;stroke-width:0.06593651"
           d="m 434.54536,87.782163 c 0.7355,-1.358863 -3.84942,-7.604979 -4.60067,-9.0364 -1.97818,-3.770782 -3.82382,-7.609683 -5.41031,-11.562159 -1.42507,-3.559071 -2.73467,-7.136497 -2.98793,-10.990373 -0.13123,-2.01381 -0.005,-4.035637 -0.11286,-6.051964 -0.059,-1.125748 0.0892,-3.10848 -1.23283,-1.542479 -1.79185,2.127717 -0.98417,8.0396 -0.37399,10.456953 0.83524,3.310584 2.02936,6.678087 3.44197,9.779278 3.0319,6.654828 6.43253,13.415479 11.27662,18.947144" /><path
           inkscape:connector-curvature="0"
           id="path94"
           style="fill:#672d06;fill-opacity:1;fill-rule:nonzero;stroke:none;stroke-width:0.06593651"
           d="m 400.47604,59.664039 c 0.99729,7.783293 5.34404,15.621585 9.09897,22.389723 0.89428,1.61285 11.36388,17.995138 13.13472,16.193438 -0.0177,0.02054 -11.39208,-15.515034 -12.40447,-17.303349 -2.05822,-3.637195 -3.9826,-7.3824 -5.74098,-11.174651 -0.933,-2.016394 -1.8404,-4.063335 -2.56803,-6.162492 -0.35364,-1.027612 -0.50521,-3.329004 -1.52021,-3.942669" /><path
           inkscape:connector-curvature="0"
           id="path96"
           style="fill:#672d06;fill-opacity:1;fill-rule:nonzero;stroke:none;stroke-width:0.06593651"
           d="m 435.9291,94.348993 c -4.11055,-5.616614 -7.62666,-11.74392 -11.16376,-17.738102 -1.6685,-2.829445 -3.28582,-5.686787 -4.73911,-8.635506 -0.36873,-0.750632 -2.77011,-6.796632 -3.37504,-5.603892 -0.88969,1.747431 2.217,6.652244 3.0752,8.239185 1.57401,2.92228 3.33699,5.753779 5.077,8.580574 1.17641,1.913089 8.74008,15.814941 11.12571,15.157741" /><path
           inkscape:connector-curvature="0"
           id="path98"
           style="fill:#672d06;fill-opacity:1;fill-rule:nonzero;stroke:none;stroke-width:0.06593651"
           d="m 415.49249,55.884908 c -0.7998,-2.344795 -1.57861,-4.697939 -2.40137,-7.032464 -0.23095,-0.657199 -0.66399,-3.196411 -1.69408,-2.036802 -0.91266,1.027082 3.0214,9.263682 4.09545,9.069266" /><path
           inkscape:connector-curvature="0"
           id="path100"
           style="fill:#672d06;fill-opacity:1;fill-rule:nonzero;stroke:none;stroke-width:0.06593651"
           d="m 420.1673,114.22793 c -0.94546,-0.3439 -12.48911,-3.28732 -12.61509,-2.9401 -0.32018,0.87732 12.04624,4.24483 12.61509,2.9401" /><path
           inkscape:connector-curvature="0"
           id="path102"
           style="fill:#672d06;fill-opacity:1;fill-rule:nonzero;stroke:none;stroke-width:0.06593651"
           d="m 431.07517,111.98094 c -0.37398,0.005 -5.28958,0.75077 -4.23914,1.53797 0.64824,0.48108 4.33625,-1.12382 4.23914,-1.53797" /><path
           inkscape:connector-curvature="0"
           id="path104"
           style="fill:#672d06;fill-opacity:1;fill-rule:nonzero;stroke:none;stroke-width:0.06593651"
           d="m 330.84343,246.37958 c -0.47634,-0.69643 -2.03985,-3.63189 0.1824,-3.54111 1.12786,0.0464 0.85557,1.53731 1.658,2.19729 -0.0512,-1.53466 0.23554,-2.18205 1.77085,-2.67373 1.62781,-0.52016 2.03001,0.73553 3.30615,0.8336 0.20011,0.1862 0.42319,0.33662 0.66923,0.44794 0.41007,-0.2147 0.76897,-0.50493 1.07144,-0.87004 0.93561,0.10602 1.61928,1.30207 2.25243,1.28418 0.42057,-3.24624 -6.65561,-2.99775 -8.46254,-2.51337 -1.41196,0.37771 -3.27269,0.3724 -3.91896,1.85074 -0.23817,0.54866 0.31034,4.08182 1.471,2.9845" /><path
           inkscape:connector-curvature="0"
           id="path106"
           style="fill:#672d06;fill-opacity:1;fill-rule:nonzero;stroke:none;stroke-width:0.06593651"
           d="m 347.45424,263.19854 c 1.75051,0.14512 3.77265,-0.31011 5.09734,-1.5373 1.71771,-1.58635 1.32797,-1.61484 -0.34839,-1.26563 -2.49848,0.52546 -3.51874,2.04488 -6.40957,1.46508 -0.27163,-0.0543 -4.56458,-1.81694 -4.76469,-1.12847 -0.41532,1.44918 5.7587,2.48753 6.42531,2.46632" /><path
           inkscape:connector-curvature="0"
           id="path108"
           style="fill:#672d06;fill-opacity:1;fill-rule:nonzero;stroke:none;stroke-width:0.06593651"
           d="m 326.59707,264.0222 c 2.0018,-0.10404 4.41039,-0.50228 6.00737,-1.82489 1.15082,-0.95022 1.71442,-1.31003 -0.34118,-1.22985 -2.40597,0.0961 -3.77724,2.24169 -6.36626,2.03495 -0.80177,-0.0649 -5.32567,-2.09923 -5.57434,-1.80171 -0.97367,1.16757 5.93323,2.7824 6.27441,2.8215" /><path
           inkscape:connector-curvature="0"
           id="path110"
           style="fill:#672d06;fill-opacity:1;fill-rule:nonzero;stroke:none;stroke-width:0.06593651"
           d="m 353.42552,255.09719 c -1.44016,-1.67448 -11.90713,-2.18205 -11.56399,-0.33132 0.28213,1.51412 3.97802,-0.13186 4.70302,-0.24319 0.76372,-0.11927 6.77174,0.75276 6.86097,0.57451" /><path
           inkscape:connector-curvature="0"
           id="path112"
           style="fill:#672d06;fill-opacity:1;fill-rule:nonzero;stroke:none;stroke-width:0.06593651"
           d="m 342.67446,234.42634 c -1.83515,-0.90847 -5.75936,-0.44794 -7.83793,-0.38566 -0.43041,0.0126 -6.4299,-0.10138 -6.61493,0.21735 -0.67907,1.1828 6.11038,0.61094 6.65627,0.58974 2.08644,-0.0749 5.9995,0.78456 7.79659,-0.42143" /><path
           inkscape:connector-curvature="0"
           id="path114"
           style="fill:#672d06;fill-opacity:1;fill-rule:nonzero;stroke:none;stroke-width:0.06593651"
           d="m 321.42231,254.85665 c 2.33969,-1.09003 4.59016,-0.52282 6.92002,0.20939 0.11023,0.0338 4.14926,1.60755 3.39079,-0.35981 -0.0361,-0.0981 -4.06724,-0.78455 -4.52849,-0.89058 -1.41983,-0.32601 -5.13868,-0.83293 -5.78232,1.041" /><path
           inkscape:connector-curvature="0"
           id="path116"
           style="fill:#672d06;fill-opacity:1;fill-rule:nonzero;stroke:none;stroke-width:0.06593651"
           d="m 361.18865,239.23772 c 0.9179,1.07214 0.92775,2.4206 1.70983,3.49738 0.45075,0.62088 1.89879,1.16491 2.08644,1.7911 0.62265,2.08332 -1.68686,1.3352 -1.47888,2.44047 0.23555,1.25039 2.0707,-0.7554 2.1783,-1.01184 0.44353,-1.07943 -0.0669,-1.45183 -0.62003,-2.29602 -0.43828,-0.66264 -1.3306,-1.23449 -1.83252,-1.96206 -0.70729,-1.02509 -0.36677,-2.34771 -2.04314,-2.45903" /><path
           inkscape:connector-curvature="0"
           id="path118"
           style="fill:#672d06;fill-opacity:1;fill-rule:nonzero;stroke:none;stroke-width:0.06593651"
           d="m 338.4609,232.31386 c -0.87919,-1.51147 -8.3451,-1.37165 -7.79659,0.47113 -0.0689,-0.22529 6.84588,-0.49697 7.79659,-0.47113" /><path
           inkscape:connector-curvature="0"
           id="path120"
           style="fill:#672d06;fill-opacity:1;fill-rule:nonzero;stroke:none;stroke-width:0.06593651"
           d="m 330.12105,235.81323 c 1.16854,2.52927 7.34781,1.47038 9.05501,0.24583 -2.98072,0.74083 -6.12284,0.68649 -9.05501,-0.24583" /><path
           inkscape:connector-curvature="0"
           id="path122"
           style="fill:#672d06;fill-opacity:1;fill-rule:nonzero;stroke:none;stroke-width:0.06593651"
           d="m 367.07333,244.4924 c -0.25589,0.70173 -2.69859,4.82994 -2.04248,4.85578 1.79381,0.0623 2.7373,-3.64714 2.04248,-4.85578" /><path
           inkscape:connector-curvature="0"
           id="path124"
           style="fill:#672d06;fill-opacity:1;fill-rule:nonzero;stroke:none;stroke-width:0.06593651"
           d="m 363.40566,238.23913 c -0.22046,-0.33132 -0.73813,-1.32328 -1.3096,-1.37762 -0.0125,1.92363 2.27605,4.78355 4.18009,5.13077 -0.9658,-1.22719 -2.42171,-2.17476 -2.87049,-3.75315" /><path
           inkscape:connector-curvature="0"
           id="path126"
           style="fill:#672d06;fill-opacity:1;fill-rule:nonzero;stroke:none;stroke-width:0.06593651"
           d="m 337.1303,267.75216 c 1.28205,-0.22529 1.38965,-2.16946 -0.0538,-2.12771 -1.48347,0.0437 -1.16591,1.87127 0.0538,2.12771" /><path
           inkscape:connector-curvature="0"
           id="path128"
           style="fill:#672d06;fill-opacity:1;fill-rule:nonzero;stroke:none;stroke-width:0.06593651"
           d="m 345.57054,221.11668 c -0.3438,-0.34192 -3.22414,-1.9985 -3.74968,-1.58436 -0.93825,0.73486 3.34223,1.51677 3.74968,1.58436" /><path
           inkscape:connector-curvature="0"
           id="path130"
           style="fill:#672d06;fill-opacity:1;fill-rule:nonzero;stroke:none;stroke-width:0.06593651"
           d="m 345.74179,251.11344 c -0.70467,-0.11398 -2.83704,0.37836 -2.74715,1.37231 0.0899,0.9913 2.56278,-1.29943 2.74715,-1.37231" /><path
           inkscape:connector-curvature="0"
           id="path132"
           style="fill:#672d06;fill-opacity:1;fill-rule:nonzero;stroke:none;stroke-width:0.06593651"
           d="m 335.66192,238.61683 c -0.47174,-0.52017 -2.56802,-0.62619 -1.9375,0.35186 0.25654,0.3989 1.7328,0.10867 1.9375,-0.35186" /><path
           inkscape:connector-curvature="0"
           id="path134"
           style="fill:#672d06;fill-opacity:1;fill-rule:nonzero;stroke:none;stroke-width:0.06593651"
           d="m 335.33912,229.7879 c -0.21521,-0.0417 -3.12441,-1.0178 -3.04765,-0.2074 0.0873,0.90118 2.79373,0.31342 3.04765,0.2074" /><path
           inkscape:connector-curvature="0"
           id="path136"
           style="fill:#672d06;fill-opacity:1;fill-rule:nonzero;stroke:none;stroke-width:0.06593651"
           d="m 259.70905,72.313845 c 0.5182,-1.15444 -0.082,-4.470192 -1.82485,-4.384778 -2.24253,0.111322 -0.87112,5.241563 0.21068,4.682168 0.46394,-0.24047 -1.18435,-3.142341 -0.27682,-3.328408 0.95603,-0.196736 1.55571,2.264815 1.89099,3.031018" /><path
           inkscape:connector-curvature="0"
           id="path138"
           style="fill:#672d06;fill-opacity:1;fill-rule:nonzero;stroke:none;stroke-width:0.06593651"
           d="m 258.80945,59.962224 c 0.58204,-2.901672 -4.54102,-0.241265 -1.96834,1.66924 1.17641,0.87461 -0.20989,-2.476858 1.96834,-1.66924" /><path
           inkscape:connector-curvature="0"
           id="path140"
           style="fill:#672d06;fill-opacity:1;fill-rule:nonzero;stroke:none;stroke-width:0.06593651"
           d="m 258.77409,52.391106 c -0.18247,-2.164161 -2.89615,-0.53892 -2.57347,1.102357 0.3642,1.860808 1.52237,-1.433674 2.57347,-1.102357" /><path
           inkscape:connector-curvature="0"
           id="path142"
           style="fill:#672d06;fill-opacity:1;fill-rule:nonzero;stroke:none;stroke-width:0.06593651"
           d="m 376.85138,49.543571 c 0.14303,0.799799 1.06356,2.922346 1.96046,1.576604 0.14566,-0.214826 -1.38177,-2.793133 -1.59697,-2.684461 -0.35102,0.284999 -0.47372,0.654616 -0.36349,1.107857" /><path
           inkscape:connector-curvature="0"
           id="path144"
           style="fill:#672d06;fill-opacity:1;fill-rule:nonzero;stroke:none;stroke-width:0.06593651"
           d="m 376.73328,45.492959 c 0.0919,0.73486 1.32732,1.51425 1.31222,0.445223 -0.0157,-1.048816 -1.50184,-2.014339 -1.31222,-0.445223" /><path
           inkscape:connector-curvature="0"
           id="path146"
           style="fill:#672d06;fill-opacity:1;fill-rule:nonzero;stroke:none;stroke-width:0.06593651"
           d="m 201.02307,39.42264 c 1.34042,0 2.6834,0.05487 4.02125,-0.02332 0.67636,-0.0383 1.35349,-0.09264 2.03267,-0.111256 6.54524,-0.178116 13.08866,-0.452513 19.63673,-0.579805 4.80859,-0.09012 9.61409,-0.214607 14.41684,-0.05182 1.44548,0.04917 2.88558,0.173676 4.33159,0.106153 0.17662,-0.0073 0.3583,0.0026 0.52745,-0.04115 0.20811,-0.05155 0.41007,-0.209936 0.3978,-0.419341 -0.0133,-0.235288 -0.25143,-0.26117 -0.46932,-0.271779 -3.38817,-0.162816 -6.75842,-0.624068 -10.15919,-0.57178 -2.56861,0.03831 -5.13874,-0.01321 -7.70729,0.05901 -3.6827,0.106644 -7.36565,0.267121 -11.04579,0.447795 -3.53455,0.173682 -7.07139,0.375839 -10.60082,0.618859 -1.80688,0.124045 -3.60324,0.367828 -5.40499,0.556811 0.008,0.09264 0.0151,0.188652 0.0231,0.28162" /><path
           inkscape:connector-curvature="0"
           id="path148"
           style="fill:#672d06;fill-opacity:1;fill-rule:nonzero;stroke:none;stroke-width:0.06593651"
           d="m 204.22931,45.787765 c 1.45062,-0.08283 2.89612,-0.214561 4.34676,-0.23782 4.18272,-0.065 8.35776,0.219995 12.53248,0.380485 2.6173,0.100654 5.23893,0 7.85826,-0.150683 3.03452,-0.170827 6.07416,-0.146972 9.11151,-0.08283 1.21971,0.02591 2.41889,-0.178049 3.63145,-0.188651 0.20018,-0.0026 0.41545,-0.07766 0.42516,-0.232717 0.0131,-0.235831 -0.2276,-0.30077 -0.44084,-0.305408 -1.32732,-0.02849 -2.65726,0.0021 -3.98254,-0.08548 -4.57711,-0.300239 -9.14687,0.12663 -13.72194,0.12663 -4.0187,0 -8.03227,-0.328733 -12.05352,-0.220061 -2.35282,0.06242 -4.70045,0.212043 -7.03299,0.551377 -0.24322,0.03645 -0.47363,0.163074 -0.70967,0.251072 0.0102,0.06494 0.0228,0.129147 0.0359,0.194086" /><path
           inkscape:connector-curvature="0"
           id="path150"
           style="fill:#672d06;fill-opacity:1;fill-rule:nonzero;stroke:none;stroke-width:0.06593651"
           d="m 217.93362,48.529146 h 10.82074 c 2.74977,0 5.49751,0.01531 8.24472,-0.01319 0.84553,-0.0106 1.69382,-0.09807 2.51934,-0.320714 0.23554,-0.06494 0.54595,-0.129943 0.50258,-0.391087 -0.0466,-0.268963 -0.35364,-0.310576 -0.6384,-0.29739 -1.49652,0.07481 -2.99581,0.168243 -4.49771,0.194086 -3.39336,0.0544 -6.78664,0.111322 -10.18281,0.09555 -2.06807,-0.0054 -4.1158,0.274132 -6.17671,0.38022 -0.23089,0.0106 -0.46643,0.04453 -0.59175,0.352521" /><path
           inkscape:connector-curvature="0"
           id="path152"
           style="fill:#672d06;fill-opacity:1;fill-rule:nonzero;stroke:none;stroke-width:0.06593651"
           d="m 264.38897,32.480763 c -1.97346,-0.347106 -3.93668,-0.157634 -5.89196,-0.05151 -3.82363,0.211989 -7.64752,0.483516 -11.48198,0.463067 -0.81732,-0.0026 -1.64028,0.05695 -2.43476,0.313459 -0.16915,0.05694 -0.3896,0.0748 -0.34578,0.305428 0.0328,0.180932 0.21272,0.258327 0.41211,0.253152 2.57577,-0.07765 5.15691,-0.113376 7.73295,-0.237879 2.08571,-0.100687 4.1671,-0.302843 6.25072,-0.468501 1.70209,-0.134594 3.40129,-0.27437 5.09747,-0.422171 0.22551,-0.01786 0.4434,-0.103277 0.66123,-0.155045" /><path
           inkscape:connector-curvature="0"
           id="path158"
           style="fill:#672d06;fill-opacity:1;fill-rule:nonzero;stroke:none;stroke-width:0.06593651"
           d="m 450.69164,58.113543 c -3.62371,0 -7.22446,0.0026 -10.82324,0 -2.74715,0 -5.49495,0.01835 -8.24209,-0.01007 -0.84573,-0.0106 -1.69671,-0.09867 -2.5221,-0.323299 -0.23554,-0.065 -0.54326,-0.129943 -0.49996,-0.388303 0.0466,-0.269692 0.3543,-0.313426 0.63578,-0.298185 1.49921,0.07302 2.99909,0.165658 4.49831,0.194151 3.39341,0.05434 6.78617,0.108738 10.18221,0.09602 2.07069,-0.008 4.11645,0.271812 6.17665,0.38055 0.23095,0.0106 0.46912,0.04426 0.59444,0.349142" /><path
           inkscape:connector-curvature="0"
           id="path160"
           style="fill:#672d06;fill-opacity:1;fill-rule:nonzero;stroke:none;stroke-width:0.06593651"
           d="m 404.2336,42.068469 c 1.97358,-0.349937 3.93667,-0.158369 5.89189,-0.05175 3.82645,0.211977 7.65093,0.483789 11.4846,0.463314 0.81489,-0.0054 1.64028,0.05699 2.43221,0.312696 0.16928,0.05699 0.39236,0.07561 0.34905,0.305474 -0.0361,0.181695 -0.21323,0.25909 -0.41007,0.251072 -2.58115,-0.07481 -5.1623,-0.111322 -7.73557,-0.235036 -2.08578,-0.101515 -4.1696,-0.305739 -6.25079,-0.468548 -1.70195,-0.134581 -3.40063,-0.27433 -5.09996,-0.422164 -0.22308,-0.02041 -0.44091,-0.103238 -0.66136,-0.155056" /></g><text
         inkscape:export-ydpi="96"
         inkscape:export-xdpi="96"
         transform="scale(1.0147495,-0.98546488)"
         id="text335"
         y="-83.089066"
         x="61.442543"
         style="font-style:normal;font-variant:normal;font-weight:normal;font-stretch:normal;font-size:40.62276459px;line-height:1.25;font-family:Bahianita;-inkscape-font-specification:Bahianita;letter-spacing:0px;word-spacing:0px;fill:#ff9955;fill-opacity:1;stroke:none;stroke-width:3.80838418"
         xml:space="preserve"><tspan
           style="font-style:normal;font-variant:normal;font-weight:normal;font-stretch:normal;font-size:243.73658752px;font-family:Bahianita;-inkscape-font-specification:Bahianita;fill:#ff9955;stroke-width:3.80838418"
           y="-83.089066"
           x="61.442543"
           id="tspan333"
           sodipodi:role="line">DS</tspan></text>
<text
         inkscape:export-ydpi="96"
         inkscape:export-xdpi="96"
         transform="scale(0.88715463,-1.1271992)"
         id="text339"
         y="-73.788589"
         x="556.39435"
         style="font-style:normal;font-variant:normal;font-weight:normal;font-stretch:normal;font-size:45.40828323px;line-height:1.25;font-family:Bahianita;-inkscape-font-specification:Bahianita;letter-spacing:0px;word-spacing:0px;fill:#ff9955;fill-opacity:1;stroke:none;stroke-width:4.2570262"
         xml:space="preserve"><tspan
           style="font-style:normal;font-variant:normal;font-weight:normal;font-stretch:normal;font-size:227.04139709px;font-family:Bahianita;-inkscape-font-specification:Bahianita;fill:#ff9955;stroke-width:4.2570262"
           y="-73.788589"
           x="556.39435"
           id="tspan337"
           sodipodi:role="line">Monk</tspan></text>
</g><text
       xml:space="preserve"
       style="font-style:normal;font-weight:normal;font-size:8px;line-height:1.25;font-family:sans-serif;letter-spacing:0px;word-spacing:0px;fill:#000000;fill-opacity:1;stroke:none;stroke-width:0.75"
       x="290.17795"
       y="-17.262745"
       id="text343"
       transform="scale(1,-1)"><tspan
         sodipodi:role="line"
         id="tspan341"
         x="290.17795"
         y="-10.18462"
         style="font-style:normal;font-variant:normal;font-weight:normal;font-stretch:normal;font-size:40px;font-family:'Asap Condensed';-inkscape-font-specification:'Asap Condensed, ';stroke-width:0.75" /></text>
</g></svg>